<?xml version="1.0" encoding="UTF-8" standalone="no"?>
<svg
   width="156"
   height="156"
   viewBox="0 0 156 156"
   fill="none"
   version="1.1"
   id="svg4"
   xmlns="http://www.w3.org/2000/svg"
   xmlns:svg="http://www.w3.org/2000/svg">
  <defs
     id="defs4" />
  <mask
     id="path-1-inside-1_64_1298"
     fill="#ffffff">
    <path
       fill-rule="evenodd"
       clip-rule="evenodd"
       d="M 0,39.75 H 38.75 77.5 V 78.5 H 38.75 v 38.75 H 77.5 V 156 H 38.75 0 V 117.25 78.5 Z"
       id="path1" />
  </mask>
  <path
     d="m 0,39.75 v -1 h -1 v 1 z m 77.5,0 h 1 v -1 h -1 z m 0,38.75 v 1 h 1 v -1 z m -38.75,0 v -1 h -1 v 1 z m 0,38.75 h -1 v 1 h 1 z m 38.75,0 h 1 v -1 h -1 z m 0,38.75 v 1 h 1 v -1 z M 0,156 h -1 v 1 H 0 Z M 38.75,38.75 H 0 v 2 h 38.75 z m 38.75,0 H 38.75 v 2 H 77.5 Z m 1,39.75 V 39.75 h -2 V 78.5 Z m -39.75,1 H 77.5 v -2 H 38.75 Z m 1,37.75 V 78.5 h -2 v 38.75 z m -1,1 H 77.5 v -2 H 38.75 Z m 37.75,-1 V 156 h 2 v -38.75 z m 1,37.75 H 38.75 v 2 H 77.5 Z M 0,157 h 38.75 v -2 H 0 Z M -1,117.25 V 156 H 1 V 117.25 Z M -1,78.5 v 38.75 H 1 V 78.5 Z M -1,39.75 V 78.5 H 1 V 39.75 Z"
     fill="#C778DD"
     mask="url(#path-1-inside-1_64_1298)"
     id="path2"
     style="fill:#3792c0;fill-opacity:1" />
  <mask
     id="path-3-outside-2_64_1298"
     maskUnits="userSpaceOnUse"
     x="76.5"
     y="0"
     width="80"
     height="119"
     fill="#000000">
    <rect
       fill="#ffffff"
       x="76.5"
       width="80"
       height="119"
       id="rect2"
       y="0" />
    <path
       fill-rule="evenodd"
       clip-rule="evenodd"
       d="M 77.5,1 H 116.25 155 V 39.75 78.5 117.25 H 116.25 77.5 V 78.5 h 38.75 V 39.75 H 77.5 Z"
       id="path3" />
  </mask>
  <path
     d="M 77.5,1 V 0 h -1 V 1 Z M 155,1 h 1 V 0 h -1 z m 0,116.25 v 1 h 1 v -1 z m -77.5,0 h -1 v 1 h 1 z m 0,-38.75 v -1 h -1 v 1 z m 38.75,0 v 1 h 1 v -1 z m 0,-38.75 h 1 v -1 h -1 z m -38.75,0 h -1 v 1 h 1 z M 116.25,0 H 77.5 v 2 h 38.75 z M 155,0 H 116.25 V 2 H 155 Z m 1,39.75 V 1 h -2 v 38.75 z m 0,38.75 V 39.75 h -2 V 78.5 Z m 0,38.75 V 78.5 h -2 v 38.75 z m -39.75,1 H 155 v -2 h -38.75 z m 0,-2 H 77.5 v 2 h 38.75 z m -37.75,1 V 78.5 h -2 v 38.75 z m -1,-37.75 h 38.75 v -2 H 77.5 Z M 115.25,39.75 V 78.5 h 2 V 39.75 Z m -37.75,1 h 38.75 v -2 H 77.5 Z M 76.5,1 v 38.75 h 2 V 1 Z"
     fill="#C778DD"
     mask="url(#path-3-outside-2_64_1298)"
     id="path4"
     style="fill:#3792c0;fill-opacity:1" />
</svg>
