<?xml version="1.0" encoding="UTF-8" standalone="no"?>
<svg
   width="900px"
   height="900px"
   viewBox="0 0 900 900"
   version="1.1"
   xml:space="preserve"
   id="SVGRoot"
   sodipodi:docname="WorkLogo.svg"
   inkscape:version="1.4.4 (dcaf3e7d9e, 2026-05-05)"
   xmlns:inkscape="http://www.inkscape.org/namespaces/inkscape"
   xmlns:sodipodi="http://sodipodi.sourceforge.net/DTD/sodipodi-0.dtd"
   xmlns="http://www.w3.org/2000/svg"
   xmlns:svg="http://www.w3.org/2000/svg"><defs
   id="defs3" />
<sodipodi:namedview
   pagecolor="#a9a9a9"
   bordercolor="#292929"
   borderopacity="1"
   inkscape:showpageshadow="2"
   inkscape:pageopacity="0.0"
   inkscape:pagecheckerboard="0"
   inkscape:deskcolor="#232323"
   id="namedview1"
   inkscape:zoom="0.25"
   inkscape:cx="704"
   inkscape:cy="522"
   inkscape:window-width="1920"
   inkscape:window-height="1050"
   inkscape:window-x="0"
   inkscape:window-y="0"
   inkscape:window-maximized="1"
   inkscape:current-layer="SVGRoot" />
<style
   type="text/css"
   id="style1">
g.prefab path {
  vector-effect:non-scaling-stroke;
  -inkscape-stroke:hairline;
  fill: none;
  fill-opacity: 1;
  stroke-opacity: 1;
  stroke: #00349c;
}
</style>
<g
   inkscape:label="Template"
   style="display:none;fill:#ffffff;stroke:#000000;stroke-width:2"
   class="prefab"
   id="g3">
  <path
   d="M 854.44504,46.32754 H 54.445038 v 88.88889 H 854.44504 Z m 0,177.77778 H 54.445038 v 88.88889 H 854.44504 Z m 0,177.77778 H 54.445038 V 490.772 H 854.44504 Z m 0,177.77778 H 54.445038 V 668.5498 H 854.44504 Z m 0,177.77775 H 54.445038 v 88.8889 H 854.44504 Z M 54.445038,46.32754 V 846.32753 H 143.33393 V 46.32754 Z m 177.777792,0 v 799.99999 h 88.88888 V 46.32754 Z m 177.77777,0 v 799.99999 h 88.88889 V 46.32754 Z m 177.77778,0 v 799.99999 h 88.88889 V 46.32754 Z m 177.77777,0 v 799.99999 h 88.88889 V 46.32754 Z"
   id="path1"
   style="display:inline" />
  <path
   d="M 365.55699,135.21621 A 311.11152,311.11111 0 0 0 54.445256,446.32753 311.11152,311.11111 0 0 0 365.55699,757.43886 311.11152,311.11111 0 0 0 676.66873,446.32753 311.11152,311.11111 0 0 0 365.55699,135.21621 Z m 0,88.88867 A 222.22252,222.22223 0 0 1 587.77994,446.32753 222.22252,222.22223 0 0 1 365.55699,668.5502 222.22252,222.22223 0 0 1 143.33405,446.32753 222.22252,222.22223 0 0 1 365.55699,224.10488 Z m 0,88.88867 A 133.33351,133.33333 0 0 0 232.22283,446.32753 133.33351,133.33333 0 0 0 365.55699,579.66152 133.33351,133.33333 0 0 0 498.89115,446.32753 133.33351,133.33333 0 0 0 365.55699,312.99355 Z m 0,88.88867 a 44.444505,44.444447 0 0 1 44.44342,44.44531 44.444505,44.444447 0 0 1 -44.44342,44.44532 44.444505,44.444447 0 0 1 -44.44537,-44.44532 44.444505,44.444447 0 0 1 44.44537,-44.44531 z"
   id="path2"
   style="display:inline;stroke-width:2" />
  <path
   d="m 543.33393,135.21621 c -171.82196,-1.2e-4 -311.11121,139.28923 -311.1111,311.11132 -1.2e-4,171.8221 139.28913,311.11145 311.1111,311.11133 171.82198,1.3e-4 311.11124,-139.28923 311.11112,-311.11133 1.1e-4,-171.8221 -139.28914,-311.11145 -311.11112,-311.11132 z m 0,533.33399 c 52.87582,10e-5 101.43841,-18.46709 139.58976,-49.30359 50.40186,-40.73817 82.63288,-103.06464 82.63275,-172.91906 2.4e-4,-122.73028 -99.4923,-222.2229 -222.22251,-222.22267 -122.7302,-2.3e-4 -222.22273,99.49239 -222.22249,222.22267 -2.3e-4,122.73027 99.4923,222.22288 222.22249,222.22265 z m 0,-88.88867 c -73.63842,3.4e-4 -133.33424,-59.69552 -133.33388,-133.33398 -3.7e-4,-73.63847 59.69545,-133.33433 133.33388,-133.33399 73.63844,-3.5e-4 133.33427,59.69552 133.3339,133.33399 3.6e-4,73.63847 -59.69546,133.33433 -133.3339,133.33398 z m 0,-88.88867 c 24.54666,4.8e-4 44.44577,-19.89864 44.44529,-44.44531 4.8e-4,-24.54667 -19.89863,-44.4458 -44.44529,-44.44532 -24.54588,6e-4 -44.4438,19.89942 -44.44332,44.44532 -4.8e-4,24.5459 19.89744,44.44471 44.44332,44.44531 z"
   id="path3"
   style="display:inline;stroke-width:2"
   sodipodi:nodetypes="ccccccscccccccccscscs" /><path
   d="m 454.44504,46.32645 c -171.82196,-1.2e-4 -311.11121,139.28923 -311.1111,311.11132 -1.2e-4,171.8221 139.28913,311.11145 311.1111,311.11133 171.82198,1.3e-4 311.11124,-139.28923 311.11112,-311.11133 C 765.55627,185.61567 626.26702,46.32632 454.44504,46.32645 Z m 0,533.33399 c 52.87582,10e-5 101.43841,-18.46709 139.58976,-49.30359 50.40186,-40.73817 82.63288,-103.06464 82.63275,-172.91906 2.4e-4,-122.73028 -99.4923,-222.2229 -222.22251,-222.22267 -122.7302,-2.3e-4 -222.22273,99.49239 -222.22249,222.22267 -2.3e-4,122.73027 99.4923,222.22288 222.22249,222.22265 z m 0,-88.88867 c -73.63842,3.4e-4 -133.33424,-59.69552 -133.33388,-133.33398 -3.7e-4,-73.63847 59.69545,-133.33433 133.33388,-133.33399 73.63844,-3.5e-4 133.33427,59.69552 133.3339,133.33399 3.6e-4,73.63847 -59.69546,133.33433 -133.3339,133.33398 z m 0,-88.88867 c 24.54666,4.8e-4 44.44577,-19.89864 44.44529,-44.44531 4.8e-4,-24.54667 -19.89863,-44.4458 -44.44529,-44.44532 -24.54588,6e-4 -44.4438,19.89942 -44.44332,44.44532 -4.8e-4,24.5459 19.89744,44.44471 44.44332,44.44531 z"
   id="path3-7"
   style="display:inline;vector-effect:non-scaling-stroke;fill:none;fill-opacity:1;stroke:#00349c;stroke-width:2;stroke-opacity:1;-inkscape-stroke:hairline"
   sodipodi:nodetypes="ccccccscccccccccscscs" />
<path
   d="M 454.44504,224.10488 C 282.62308,224.10476 143.33383,363.39411 143.33394,535.2162 143.33382,707.0383 282.62307,846.32765 454.44504,846.32753 626.26702,846.32766 765.55628,707.0383 765.55616,535.2162 765.55627,363.3941 626.26702,224.10475 454.44504,224.10488 Z m 0,533.33399 c 52.87582,1e-4 101.43841,-18.46709 139.58976,-49.30359 50.40186,-40.73817 82.63288,-103.06464 82.63275,-172.91906 2.4e-4,-122.73028 -99.4923,-222.2229 -222.22251,-222.22267 -122.7302,-2.3e-4 -222.22273,99.49239 -222.22249,222.22267 -2.3e-4,122.73027 99.4923,222.22288 222.22249,222.22265 z m 0,-88.88867 c -73.63842,3.4e-4 -133.33424,-59.69552 -133.33388,-133.33398 -3.7e-4,-73.63847 59.69545,-133.33433 133.33388,-133.33399 73.63844,-3.5e-4 133.33427,59.69552 133.3339,133.33399 3.6e-4,73.63847 -59.69546,133.33433 -133.3339,133.33398 z m 0,-88.88867 c 24.54666,4.8e-4 44.44577,-19.89864 44.44529,-44.44531 4.8e-4,-24.54667 -19.89863,-44.4458 -44.44529,-44.44532 -24.54588,6e-4 -44.4438,19.89942 -44.44332,44.44532 -4.8e-4,24.5459 19.89744,44.44471 44.44332,44.44531 z"
   id="path220"
   style="display:inline;vector-effect:non-scaling-stroke;fill:none;fill-opacity:1;stroke:#00349c;stroke-width:2;stroke-opacity:1;-inkscape-stroke:hairline"
   sodipodi:nodetypes="ccccccscccccccccscscs" /><path
   d="m 187.77892,-42.56265 c -171.82196,-1e-4 -311.11121,139.28922 -311.1111,311.11131 -1.2e-4,171.8221 139.28913,311.11145 311.1111,311.11133 C 359.6009,579.66012 498.89016,440.37076 498.89004,268.54866 498.89015,96.72656 359.6009,-42.56275 187.77892,-42.56265 Z m 0,533.33398 c 52.87582,1e-4 101.43841,-18.46709 139.58976,-49.30359 50.40186,-40.73817 82.63288,-103.06464 82.63275,-172.91906 2.4e-4,-122.73028 -99.4923,-222.22293 -222.22251,-222.22263 -122.7302,-3e-4 -222.222734,99.49235 -222.222494,222.22263 -2.3e-4,122.73027 99.492304,222.22288 222.222494,222.22265 z m 0,-88.88867 C 114.1405,401.883 54.44468,342.18714 54.44504,268.54868 c -3.7e-4,-73.63847 59.69545,-133.33433 133.33388,-133.33399 73.63844,-3.5e-4 133.33427,59.69552 133.3339,133.33399 3.6e-4,73.63847 -59.69546,133.33433 -133.3339,133.33398 z m 0,-88.88867 c 24.54666,4.8e-4 44.44577,-19.89864 44.44529,-44.44531 4.8e-4,-24.54667 -19.89863,-44.4458 -44.44529,-44.44532 -24.54588,6e-4 -44.4438,19.89942 -44.44332,44.44532 -4.8e-4,24.5459 19.89744,44.44471 44.44332,44.44531 z"
   id="path221"
   style="display:inline;vector-effect:non-scaling-stroke;fill:none;fill-opacity:1;stroke:#00349c;stroke-width:2;stroke-opacity:1;-inkscape-stroke:hairline"
   sodipodi:nodetypes="ccccccscccccccccscscs" /><path
   d="M 721.11114,46.327965 C 549.28918,46.327865 409.99993,185.61721 410.00004,357.4393 409.99992,529.2614 549.28917,668.55075 721.11114,668.55063 892.93312,668.55076 1032.2224,529.2614 1032.2223,357.4393 1032.2224,185.6172 892.93312,46.327865 721.11114,46.327965 Z m 0,533.334005 c 52.87582,9e-5 101.43841,-18.46708 139.58976,-49.30358 50.40186,-40.73817 82.63289,-103.06464 82.63279,-172.91908 2e-4,-122.73027 -99.49234,-222.22295 -222.22255,-222.22265 -122.7302,-3e-4 -222.22273,99.49238 -222.22249,222.22265 -2.3e-4,122.73027 99.4923,222.22289 222.22249,222.22266 z m 0,-88.88868 c -73.63842,3.5e-4 -133.33424,-59.69552 -133.33388,-133.33398 -3.7e-4,-73.63847 59.69545,-133.33433 133.33388,-133.33398 73.63844,-3.6e-4 133.33427,59.69551 133.3339,133.33398 3.6e-4,73.63847 -59.69546,133.33433 -133.3339,133.33398 z m 0,-88.88867 c 24.54666,4.8e-4 44.44577,-19.89864 44.44529,-44.44531 4.8e-4,-24.54666 -19.89863,-44.44579 -44.44529,-44.44532 -24.54588,6e-4 -44.4438,19.89942 -44.44332,44.44532 -4.8e-4,24.5459 19.89744,44.44471 44.44332,44.44531 z"
   id="path222"
   style="display:inline;vector-effect:non-scaling-stroke;fill:none;fill-opacity:1;stroke:#00349c;stroke-width:2;stroke-opacity:1;-inkscape-stroke:hairline"
   sodipodi:nodetypes="ccccccscccccccccscscs" /><path
   d="m 721.11114,312.99399 c -171.82196,-10e-5 -311.11121,139.28925 -311.1111,311.11134 -1.2e-4,171.8221 139.28913,311.11143 311.1111,311.11133 171.82198,10e-5 311.11126,-139.28923 311.11116,-311.11133 1e-4,-171.8221 -139.28918,-311.11144 -311.11116,-311.11134 z m 0,533.33397 c 52.87582,1e-4 101.43841,-18.4671 139.58976,-49.30355 50.40186,-40.73817 82.63289,-103.06464 82.63279,-172.91907 2e-4,-122.73028 -99.49234,-222.22295 -222.22255,-222.22265 -122.7302,-3e-4 -222.22273,99.49237 -222.22249,222.22265 -2.3e-4,122.73027 99.4923,222.22292 222.22249,222.22262 z m 0,-88.88864 c -73.63842,3.5e-4 -133.33424,-59.69552 -133.33388,-133.33398 -3.7e-4,-73.63847 59.69545,-133.33433 133.33388,-133.33398 73.63844,-3.6e-4 133.33427,59.69551 133.3339,133.33398 3.6e-4,73.63847 -59.69546,133.33433 -133.3339,133.33398 z m 0,-88.88867 c 24.54666,4.8e-4 44.44577,-19.89864 44.44529,-44.44531 4.8e-4,-24.54666 -19.89863,-44.44579 -44.44529,-44.44532 -24.54588,6e-4 -44.4438,19.89942 -44.44332,44.44532 -4.8e-4,24.5459 19.89744,44.44471 44.44332,44.44531 z"
   id="path223"
   style="display:inline;vector-effect:non-scaling-stroke;fill:none;fill-opacity:1;stroke:#00349c;stroke-width:2;stroke-opacity:1;-inkscape-stroke:hairline"
   sodipodi:nodetypes="ccccccscccccccccscscs" /><path
   d="m 187.77892,312.99399 c -171.821962,-10e-5 -311.11121,139.28925 -311.1111,311.11134 -1.2e-4,171.8221 139.289128,311.11143 311.1111,311.11133 171.82198,10e-5 311.11125,-139.28923 311.11115,-311.11133 1e-4,-171.8221 -139.28917,-311.11144 -311.11115,-311.11134 z m 0,533.33397 c 52.87582,1e-4 101.43841,-18.4671 139.58976,-49.30355 50.40186,-40.73817 82.63289,-103.06464 82.63279,-172.91907 2e-4,-122.73028 -99.49234,-222.22295 -222.22255,-222.22265 -122.730202,-3e-4 -222.22273,99.49237 -222.22249,222.22265 -2.3e-4,122.73027 99.492298,222.22292 222.22249,222.22262 z m 0,-88.88864 C 114.1405,757.43967 54.444678,697.7438 54.445038,624.10534 54.444668,550.46687 114.14049,490.77101 187.77892,490.77136 c 73.63844,-3.6e-4 133.33427,59.69551 133.3339,133.33398 3.6e-4,73.63847 -59.69546,133.33433 -133.3339,133.33398 z m 0,-88.88867 c 24.54666,4.8e-4 44.44577,-19.89864 44.44529,-44.44531 4.8e-4,-24.54666 -19.89863,-44.44579 -44.44529,-44.44532 -24.54588,6e-4 -44.4438,19.89942 -44.44332,44.44532 -4.8e-4,24.5459 19.89744,44.44471 44.44332,44.44531 z"
   id="path224"
   style="display:inline;vector-effect:non-scaling-stroke;fill:none;fill-opacity:1;stroke:#00349c;stroke-width:2;stroke-opacity:1;-inkscape-stroke:hairline"
   sodipodi:nodetypes="ccccccscccccccccscscs" /><path
   d="m -78.88886,312.99399 c -171.82196,-10e-5 -311.11121,139.28925 -311.1111,311.11134 -1.2e-4,171.8221 139.28913,311.11143 311.1111,311.11133 171.82198,10e-5 311.11125,-139.28923 311.11115,-311.11133 1e-4,-171.8221 -139.28917,-311.11144 -311.11115,-311.11134 z m 0,533.33397 c 52.87582,1e-4 101.43841,-18.4671 139.58976,-49.30355 50.40186,-40.73817 82.63289,-103.06464 82.63279,-172.91907 2e-4,-122.73028 -99.49234,-222.22295 -222.22255,-222.22265 -122.7302,-3e-4 -222.22273,99.49237 -222.22249,222.22265 -2.3e-4,122.73027 99.4923,222.22292 222.22249,222.22262 z m 0,-88.88864 c -73.63842,3.5e-4 -133.33424,-59.69552 -133.33388,-133.33398 -3.7e-4,-73.63847 59.69545,-133.33433 133.33388,-133.33398 73.63844,-3.6e-4 133.33427,59.69551 133.3339,133.33398 3.6e-4,73.63847 -59.69546,133.33433 -133.3339,133.33398 z m 0,-88.88867 c 24.54666,4.8e-4 44.44577,-19.89864 44.44529,-44.44531 4.8e-4,-24.54666 -19.89863,-44.44579 -44.44529,-44.44532 -24.54588,6e-4 -44.4438,19.89942 -44.44332,44.44532 -4.8e-4,24.5459 19.89744,44.44471 44.44332,44.44531 z"
   id="path225"
   style="display:inline;vector-effect:non-scaling-stroke;fill:none;fill-opacity:1;stroke:#00349c;stroke-width:2;stroke-opacity:1;-inkscape-stroke:hairline"
   sodipodi:nodetypes="ccccccscccccccccscscs" /><path
   d="m -78.88886,-42.56267 c -171.82196,-1e-4 -311.11121,139.28922 -311.1111,311.11131 -1.2e-4,171.8221 139.28913,311.11145 311.1111,311.11133 C 92.93312,579.6601 232.22238,440.37074 232.22226,268.54864 232.22237,96.72654 92.93312,-42.56277 -78.88886,-42.56267 Z m 0,533.33398 c 52.87582,10e-5 101.43841,-18.46709 139.58976,-49.30359 50.40186,-40.73817 82.63288,-103.06464 82.63275,-172.91906 2.4e-4,-122.73028 -99.4923,-222.22293 -222.22251,-222.22263 -122.7302,-3e-4 -222.22273,99.49235 -222.22249,222.22263 -2.3e-4,122.73027 99.4923,222.22288 222.22249,222.22265 z m 0,-88.88867 c -73.63842,3.4e-4 -133.33424,-59.69552 -133.33388,-133.33398 -3.7e-4,-73.63847 59.69545,-133.33433 133.33388,-133.33399 73.63844,-3.5e-4 133.33427,59.69552 133.3339,133.33399 3.6e-4,73.63847 -59.69546,133.33433 -133.3339,133.33398 z m 0,-88.88867 c 24.54666,4.8e-4 44.44577,-19.89864 44.44529,-44.44531 4.8e-4,-24.54667 -19.89863,-44.4458 -44.44529,-44.44532 -24.54588,6e-4 -44.4438,19.89942 -44.44332,44.44532 -4.8e-4,24.5459 19.89744,44.44471 44.44332,44.44531 z"
   id="path226"
   style="display:inline;vector-effect:non-scaling-stroke;fill:none;fill-opacity:1;stroke:#00349c;stroke-width:2;stroke-opacity:1;-inkscape-stroke:hairline"
   sodipodi:nodetypes="ccccccscccccccccscscs" /><path
   d="M 365.55699,-131.4498 C 193.73503,-131.4499 54.44578,7.83942 54.44589,179.66151 54.44577,351.48361 193.73502,490.77296 365.55699,490.77284 537.37897,490.77297 676.66823,351.48361 676.66811,179.66151 676.66822,7.83941 537.37897,-131.4499 365.55699,-131.4498 Z m 0,533.33398 c 52.87582,10e-5 101.43841,-18.46709 139.58976,-49.30359 50.40186,-40.73817 82.63288,-103.06464 82.63275,-172.91906 2.4e-4,-122.73028 -99.4923,-222.22293 -222.22251,-222.22263 -122.7302,-3e-4 -222.22273,99.49235 -222.22249,222.22263 -2.3e-4,122.73027 99.4923,222.22288 222.22249,222.22265 z m 0,-88.88867 c -73.63842,3.4e-4 -133.33424,-59.69552 -133.33388,-133.33398 -3.7e-4,-73.63847 59.69545,-133.33433 133.33388,-133.33399 73.63844,-3.5e-4 133.33427,59.69552 133.3339,133.33399 3.6e-4,73.63847 -59.69546,133.33433 -133.3339,133.33398 z m 0,-88.88867 c 24.54666,4.8e-4 44.44577,-19.89864 44.44529,-44.44531 4.8e-4,-24.54667 -19.89863,-44.4458 -44.44529,-44.44532 -24.54588,6e-4 -44.4438,19.89942 -44.44332,44.44532 -4.8e-4,24.5459 19.89744,44.44471 44.44332,44.44531 z"
   id="path227"
   style="display:inline;vector-effect:non-scaling-stroke;fill:none;fill-opacity:1;stroke:#00349c;stroke-width:2;stroke-opacity:1;-inkscape-stroke:hairline"
   sodipodi:nodetypes="ccccccscccccccccscscs" /><path
   d="m 276.66753,-42.56265 c -171.82196,-1e-4 -311.11121,139.28922 -311.1111,311.11131 -1.2e-4,171.8221 139.28913,311.11145 311.1111,311.11133 171.82198,1.3e-4 311.11124,-139.28923 311.11112,-311.11133 1.1e-4,-171.8221 -139.28914,-311.11141 -311.11112,-311.11131 z m 0,533.33398 c 52.87582,1e-4 101.43841,-18.46709 139.58976,-49.30359 C 466.65915,400.72957 498.89017,338.4031 498.89004,268.54868 498.89028,145.8184 399.39774,46.32575 276.66753,46.32605 153.93733,46.32575 54.4448,145.8184 54.44504,268.54868 c -2.3e-4,122.73027 99.4923,222.22288 222.22249,222.22265 z m 0,-88.88867 c -73.63842,3.4e-4 -133.33424,-59.69552 -133.33388,-133.33398 -3.7e-4,-73.63847 59.69545,-133.33433 133.33388,-133.33399 73.63844,-3.5e-4 133.33427,59.69552 133.3339,133.33399 3.6e-4,73.63847 -59.69546,133.33433 -133.3339,133.33398 z m 0,-88.88867 c 24.54666,4.8e-4 44.44577,-19.89864 44.44529,-44.44531 4.8e-4,-24.54667 -19.89863,-44.4458 -44.44529,-44.44532 -24.54588,6e-4 -44.4438,19.89942 -44.44332,44.44532 -4.8e-4,24.5459 19.89744,44.44471 44.44332,44.44531 z"
   id="path228"
   style="display:inline;vector-effect:non-scaling-stroke;fill:none;fill-opacity:1;stroke:#00349c;stroke-width:2;stroke-opacity:1;-inkscape-stroke:hairline"
   sodipodi:nodetypes="ccccccscccccccccscscs" /><path
   d="m 276.66753,224.10532 c -171.82196,-1e-4 -311.11121,139.28922 -311.1111,311.11131 -1.2e-4,171.8221 139.28913,311.11145 311.1111,311.11133 171.82198,1.3e-4 311.11124,-139.28923 311.11112,-311.11133 1.1e-4,-171.8221 -139.28914,-311.11141 -311.11112,-311.11131 z m 0,533.33398 c 52.87582,10e-5 101.43841,-18.46709 139.58976,-49.30359 50.40186,-40.73817 82.63288,-103.06464 82.63275,-172.91906 2.4e-4,-122.73028 -99.4923,-222.22293 -222.22251,-222.22263 -122.7302,-3e-4 -222.22273,99.49235 -222.22249,222.22263 -2.3e-4,122.73027 99.4923,222.22288 222.22249,222.22265 z m 0,-88.88867 c -73.63842,3.4e-4 -133.33424,-59.69552 -133.33388,-133.33398 -3.7e-4,-73.63847 59.69545,-133.33433 133.33388,-133.33399 73.63844,-3.5e-4 133.33427,59.69552 133.3339,133.33399 3.6e-4,73.63847 -59.69546,133.33433 -133.3339,133.33398 z m 0,-88.88867 c 24.54666,4.8e-4 44.44577,-19.89864 44.44529,-44.44531 4.8e-4,-24.54667 -19.89863,-44.4458 -44.44529,-44.44532 -24.54588,6e-4 -44.4438,19.89942 -44.44332,44.44532 -4.8e-4,24.5459 19.89744,44.44471 44.44332,44.44531 z"
   id="path229"
   style="display:inline;vector-effect:non-scaling-stroke;fill:none;fill-opacity:1;stroke:#00349c;stroke-width:2;stroke-opacity:1;-inkscape-stroke:hairline"
   sodipodi:nodetypes="ccccccscccccccccscscs" /><path
   d="M 276.66753,312.99398 C 104.84557,312.99386 -34.44368,452.28321 -34.44357,624.1053 -34.44369,795.9274 104.84556,935.21675 276.66753,935.21663 448.48951,935.21676 587.77877,795.9274 587.77865,624.1053 587.77876,452.2832 448.48951,312.99385 276.66753,312.99398 Z m 0,533.33399 c 52.87582,10e-5 101.43841,-18.46709 139.58976,-49.30359 50.40186,-40.73817 82.63288,-103.06464 82.63275,-172.91906 2.4e-4,-122.73028 -99.4923,-222.2229 -222.22251,-222.22267 -122.7302,-2.3e-4 -222.22273,99.49239 -222.22249,222.22267 -2.3e-4,122.73027 99.4923,222.22288 222.22249,222.22265 z m 0,-88.88867 c -73.63842,3.4e-4 -133.33424,-59.69552 -133.33388,-133.33398 -3.7e-4,-73.63847 59.69545,-133.33433 133.33388,-133.33399 73.63844,-3.5e-4 133.33427,59.69552 133.3339,133.33399 3.6e-4,73.63847 -59.69546,133.33433 -133.3339,133.33398 z m 0,-88.88867 c 24.54666,4.8e-4 44.44577,-19.89864 44.44529,-44.44531 4.8e-4,-24.54667 -19.89863,-44.4458 -44.44529,-44.44532 -24.54588,6e-4 -44.4438,19.89942 -44.44332,44.44532 -4.8e-4,24.5459 19.89744,44.44471 44.44332,44.44531 z"
   id="path230"
   style="display:inline;vector-effect:non-scaling-stroke;fill:none;fill-opacity:1;stroke:#00349c;stroke-width:2;stroke-opacity:1;-inkscape-stroke:hairline"
   sodipodi:nodetypes="ccccccscccccccccscscs" /><path
   d="m 543.33361,224.10485 c -171.82196,-1e-4 -311.11121,139.28925 -311.1111,311.11134 -1.2e-4,171.8221 139.28913,311.11143 311.1111,311.11133 171.82198,10e-5 311.11126,-139.28923 311.11116,-311.11133 1e-4,-171.8221 -139.28918,-311.11144 -311.11116,-311.11134 z m 0,533.33397 c 52.87582,1e-4 101.43841,-18.4671 139.58976,-49.30355 50.40186,-40.73817 82.63289,-103.06464 82.63279,-172.91907 2e-4,-122.73028 -99.49234,-222.22295 -222.22255,-222.22265 -122.7302,-3e-4 -222.22273,99.49237 -222.22249,222.22265 -2.3e-4,122.73027 99.4923,222.22292 222.22249,222.22262 z m 0,-88.88864 c -73.63842,3.5e-4 -133.33424,-59.69552 -133.33388,-133.33398 -3.7e-4,-73.63847 59.69545,-133.33433 133.33388,-133.33398 73.63844,-3.6e-4 133.33427,59.69551 133.3339,133.33398 3.6e-4,73.63847 -59.69546,133.33433 -133.3339,133.33398 z m 0,-88.88867 c 24.54666,4.8e-4 44.44577,-19.89864 44.44529,-44.44531 4.8e-4,-24.54666 -19.89863,-44.44579 -44.44529,-44.44532 -24.54588,6e-4 -44.4438,19.89942 -44.44332,44.44532 -4.8e-4,24.5459 19.89744,44.44471 44.44332,44.44531 z"
   id="path231"
   style="display:inline;vector-effect:non-scaling-stroke;fill:none;fill-opacity:1;stroke:#00349c;stroke-width:2;stroke-opacity:1;-inkscape-stroke:hairline"
   sodipodi:nodetypes="ccccccscccccccccscscs" /><path
   d="m 543.33361,46.32642 c -171.82196,-10e-5 -311.11121,139.28925 -311.1111,311.11134 -1.2e-4,171.8221 139.28913,311.11143 311.1111,311.11133 171.82198,10e-5 311.11126,-139.28923 311.11116,-311.11133 1e-4,-171.8221 -139.28918,-311.11144 -311.11116,-311.11134 z m 0,533.33397 c 52.87582,10e-5 101.43841,-18.4671 139.58976,-49.30355 50.40186,-40.73817 82.63289,-103.06464 82.63279,-172.91907 2e-4,-122.73028 -99.49234,-222.22295 -222.22255,-222.22265 -122.7302,-3e-4 -222.22273,99.49237 -222.22249,222.22265 -2.3e-4,122.73027 99.4923,222.22292 222.22249,222.22262 z m 0,-88.88864 c -73.63842,3.5e-4 -133.33424,-59.69552 -133.33388,-133.33398 -3.7e-4,-73.63847 59.69545,-133.33433 133.33388,-133.33398 73.63844,-3.6e-4 133.33427,59.69551 133.3339,133.33398 3.6e-4,73.63847 -59.69546,133.33433 -133.3339,133.33398 z m 0,-88.88867 c 24.54666,4.8e-4 44.44577,-19.89864 44.44529,-44.44531 4.8e-4,-24.54666 -19.89863,-44.44579 -44.44529,-44.44532 -24.54588,6e-4 -44.4438,19.89942 -44.44332,44.44532 -4.8e-4,24.5459 19.89744,44.44471 44.44332,44.44531 z"
   id="path232"
   style="display:inline;vector-effect:non-scaling-stroke;fill:none;fill-opacity:1;stroke:#00349c;stroke-width:2;stroke-opacity:1;-inkscape-stroke:hairline"
   sodipodi:nodetypes="ccccccscccccccccscscs" /><path
   d="m 365.55699,312.9955 c -171.82196,-1.2e-4 -311.11121,139.28923 -311.1111,311.11132 -1.2e-4,171.8221 139.28913,311.11145 311.1111,311.11133 171.82198,1.3e-4 311.11124,-139.28923 311.11112,-311.11133 1.1e-4,-171.8221 -139.28914,-311.11145 -311.11112,-311.11132 z m 0,533.33399 c 52.87582,1e-4 101.43841,-18.46709 139.58976,-49.30359 50.40186,-40.73817 82.63288,-103.06464 82.63275,-172.91906 2.4e-4,-122.73028 -99.4923,-222.2229 -222.22251,-222.22267 -122.7302,-2.3e-4 -222.22273,99.49239 -222.22249,222.22267 -2.3e-4,122.73027 99.4923,222.22288 222.22249,222.22265 z m 0,-88.88867 c -73.63842,3.4e-4 -133.33424,-59.69552 -133.33388,-133.33398 -3.7e-4,-73.63847 59.69545,-133.33433 133.33388,-133.33399 73.63844,-3.5e-4 133.33427,59.69552 133.3339,133.33399 3.6e-4,73.63847 -59.69546,133.33433 -133.3339,133.33398 z m 0,-88.88867 c 24.54666,4.8e-4 44.44577,-19.89864 44.44529,-44.44531 4.8e-4,-24.54667 -19.89863,-44.4458 -44.44529,-44.44532 -24.54588,6e-4 -44.4438,19.89942 -44.44332,44.44532 -4.8e-4,24.5459 19.89744,44.44471 44.44332,44.44531 z"
   id="path233"
   style="display:inline;vector-effect:non-scaling-stroke;fill:none;fill-opacity:1;stroke:#00349c;stroke-width:2;stroke-opacity:1;-inkscape-stroke:hairline"
   sodipodi:nodetypes="ccccccscccccccccscscs" /><path
   d="M 810.00059,46.32754 H 10.000593 v 88.88889 H 810.00059 Z m 0,177.77778 H 10.000593 v 88.88889 H 810.00059 Z m 0,177.77778 H 10.000593 V 490.772 H 810.00059 Z m 0,177.77778 H 10.000593 V 668.5498 H 810.00059 Z m 0,177.77775 H 10.000593 v 88.8889 H 810.00059 Z M 10.000593,46.32754 V 846.32753 H 98.889485 V 46.32754 Z m 177.777797,0 v 799.99999 h 88.88888 V 46.32754 Z m 177.77776,0 v 799.99999 h 88.88889 V 46.32754 Z m 177.77778,0 v 799.99999 h 88.88889 V 46.32754 Z m 177.77778,0 V 846.32753 H 810.0006 V 46.32754 Z"
   id="path234"
   style="display:inline" /><path
   d="m 809.99975,312.99398 c -171.82196,-1e-4 -311.11121,139.28925 -311.1111,311.11134 -1.2e-4,171.8221 139.28913,311.11143 311.1111,311.11133 171.82198,1e-4 311.11125,-139.28923 311.11115,-311.11133 1e-4,-171.8221 -139.28917,-311.11144 -311.11115,-311.11134 z m 0,533.33397 c 52.87582,10e-5 101.43841,-18.4671 139.58976,-49.30355 50.40186,-40.73817 82.63289,-103.06464 82.63279,-172.91907 2e-4,-122.73028 -99.49234,-222.22295 -222.22255,-222.22265 -122.7302,-3e-4 -222.22273,99.49237 -222.22249,222.22265 -2.3e-4,122.73027 99.4923,222.22292 222.22249,222.22262 z m 0,-88.88864 c -73.63842,3.5e-4 -133.33424,-59.69552 -133.33388,-133.33398 -3.7e-4,-73.63847 59.69545,-133.33433 133.33388,-133.33398 73.63844,-3.6e-4 133.33427,59.69551 133.3339,133.33398 3.6e-4,73.63847 -59.69546,133.33433 -133.3339,133.33398 z m 0,-88.88867 c 24.54666,4.8e-4 44.44577,-19.89864 44.44529,-44.44531 4.8e-4,-24.54666 -19.89863,-44.44579 -44.44529,-44.44532 -24.54588,6e-4 -44.4438,19.89942 -44.44332,44.44532 -4.8e-4,24.5459 19.89744,44.44471 44.44332,44.44531 z"
   id="path236"
   style="display:inline;vector-effect:non-scaling-stroke;fill:none;fill-opacity:1;stroke:#00349c;stroke-width:2;stroke-opacity:1;-inkscape-stroke:hairline"
   sodipodi:nodetypes="ccccccscccccccccscscs" /><path
   d="m 809.99948,46.326415 c -171.82196,-10e-5 -311.11121,139.289245 -311.1111,311.111335 -1.2e-4,171.8221 139.28913,311.11145 311.1111,311.11133 171.82198,1.3e-4 311.11122,-139.28923 311.11112,-311.11133 10e-5,-171.8221 -139.28914,-311.111435 -311.11112,-311.111335 z m 0,533.334005 c 52.87582,9e-5 101.43841,-18.46708 139.58976,-49.30358 50.40186,-40.73817 82.63286,-103.06464 82.63276,-172.91908 2e-4,-122.73027 -99.49231,-222.22295 -222.22252,-222.22265 -122.7302,-3e-4 -222.22273,99.49238 -222.22249,222.22265 -2.3e-4,122.73027 99.4923,222.22289 222.22249,222.22266 z m 0,-88.88868 c -73.63842,3.5e-4 -133.33424,-59.69552 -133.33388,-133.33398 -3.7e-4,-73.63847 59.69545,-133.33433 133.33388,-133.33398 73.63844,-3.6e-4 133.33427,59.69551 133.3339,133.33398 3.6e-4,73.63847 -59.69546,133.33433 -133.3339,133.33398 z m 0,-88.88867 c 24.54666,4.8e-4 44.44577,-19.89864 44.44529,-44.44531 4.8e-4,-24.54666 -19.89863,-44.44579 -44.44529,-44.44532 -24.54588,6e-4 -44.4438,19.89942 -44.44332,44.44532 -4.8e-4,24.5459 19.89744,44.44471 44.44332,44.44531 z"
   id="path237"
   style="display:inline;vector-effect:non-scaling-stroke;fill:none;fill-opacity:1;stroke:#00349c;stroke-width:2;stroke-opacity:1;-inkscape-stroke:hairline"
   sodipodi:nodetypes="ccccccscccccccccscscs" /><path
   d="M 1121.1111,46.326655 H 321.11114 v 88.888895 h 799.99996 z m 0,177.777785 H 321.11114 v 88.88889 h 799.99996 z m 0,177.77778 H 321.11114 v 88.8889 h 799.99996 z m 0,177.77778 H 321.11114 v 88.88892 h 799.99996 z m 0,177.77775 H 321.11114 v 88.8889 H 1121.1111 Z M 321.11114,46.326655 V 846.32665 h 88.88889 V 46.326655 Z m 177.77779,0 V 846.32665 h 88.88888 V 46.326655 Z m 177.77777,0 V 846.32665 h 88.88889 V 46.326655 Z m 177.77778,0 V 846.32665 h 88.88889 V 46.326655 Z m 177.77772,0 V 846.32665 h 88.8889 V 46.326655 Z"
   id="path238"
   style="display:inline" /><path
   d="m 898.88835,312.99397 c -171.82196,-10e-5 -311.11121,139.28925 -311.1111,311.11134 -1.2e-4,171.8221 139.28913,311.11143 311.1111,311.11133 171.82195,10e-5 311.11125,-139.28923 311.11115,-311.11133 1e-4,-171.8221 -139.2892,-311.11144 -311.11115,-311.11134 z m 0,533.33397 c 52.87582,10e-5 101.43845,-18.4671 139.58975,-49.30355 50.4019,-40.73817 82.6329,-103.06464 82.6328,-172.91907 2e-4,-122.73028 -99.4923,-222.22295 -222.22255,-222.22265 -122.7302,-3e-4 -222.22273,99.49237 -222.22249,222.22265 -2.3e-4,122.73027 99.4923,222.22292 222.22249,222.22262 z m 0,-88.88864 c -73.63842,3.5e-4 -133.33424,-59.69552 -133.33388,-133.33398 -3.7e-4,-73.63847 59.69545,-133.33433 133.33388,-133.33398 73.63844,-3.6e-4 133.33425,59.69551 133.33385,133.33398 4e-4,73.63847 -59.69541,133.33433 -133.33385,133.33398 z m 0,-88.88867 c 24.54666,4.8e-4 44.44577,-19.89864 44.44529,-44.44531 4.8e-4,-24.54666 -19.89863,-44.44579 -44.44529,-44.44532 -24.54588,6e-4 -44.4438,19.89942 -44.44332,44.44532 -4.8e-4,24.5459 19.89744,44.44471 44.44332,44.44531 z"
   id="path239"
   style="display:inline;vector-effect:non-scaling-stroke;fill:none;fill-opacity:1;stroke:#00349c;stroke-width:2;stroke-opacity:1;-inkscape-stroke:hairline"
   sodipodi:nodetypes="ccccccscccccccccscscs" /><path
   d="m 898.88835,-42.561605 c -171.82196,-1e-4 -311.11121,139.28925 -311.1111,311.111335 -1.2e-4,171.8221 139.28913,311.11145 311.1111,311.11133 171.82195,1.3e-4 311.11125,-139.28923 311.11115,-311.11133 1e-4,-171.822095 -139.2892,-311.111435 -311.11115,-311.111335 z m 0,533.334005 c 52.87582,9e-5 101.43845,-18.46708 139.58975,-49.30358 50.4019,-40.73817 82.6329,-103.06464 82.6328,-172.91908 2e-4,-122.73027 -99.4923,-222.222945 -222.22255,-222.222645 -122.7302,-3e-4 -222.22273,99.492375 -222.22249,222.222645 -2.3e-4,122.73027 99.4923,222.22289 222.22249,222.22266 z m 0,-88.88868 c -73.63842,3.5e-4 -133.33424,-59.69552 -133.33388,-133.33398 -3.7e-4,-73.63847 59.69545,-133.33433 133.33388,-133.33398 73.63844,-3.6e-4 133.33425,59.69551 133.33385,133.33398 4e-4,73.63847 -59.69541,133.33433 -133.33385,133.33398 z m 0,-88.88867 c 24.54666,4.8e-4 44.44577,-19.89864 44.44529,-44.44531 4.8e-4,-24.54666 -19.89863,-44.44579 -44.44529,-44.44532 -24.54588,6e-4 -44.4438,19.89942 -44.44332,44.44532 -4.8e-4,24.5459 19.89744,44.44471 44.44332,44.44531 z"
   id="path240"
   style="display:inline;vector-effect:non-scaling-stroke;fill:none;fill-opacity:1;stroke:#00349c;stroke-width:2;stroke-opacity:1;-inkscape-stroke:hairline"
   sodipodi:nodetypes="ccccccscccccccccscscs" /><path
   d="m 632.22117,135.21617 c -171.82196,-1e-4 -311.11121,139.28925 -311.1111,311.11133 -1.2e-4,171.8221 139.28913,311.11145 311.1111,311.11133 171.82195,1.3e-4 311.11125,-139.28923 311.11115,-311.11133 10e-5,-171.82209 -139.2892,-311.11143 -311.11115,-311.11133 z m 0,533.334 c 52.87582,9e-5 101.43845,-18.46708 139.58975,-49.30358 50.4019,-40.73817 82.6329,-103.06464 82.6328,-172.91908 2e-4,-122.73027 -99.4923,-222.22294 -222.22255,-222.22264 -122.7302,-3e-4 -222.22273,99.49237 -222.22249,222.22264 -2.3e-4,122.73027 99.4923,222.22289 222.22249,222.22266 z m 0,-88.88868 c -73.63842,3.5e-4 -133.33424,-59.69552 -133.33388,-133.33398 -3.7e-4,-73.63847 59.69545,-133.33433 133.33388,-133.33398 73.63844,-3.6e-4 133.33425,59.69551 133.33385,133.33398 4e-4,73.63847 -59.69541,133.33433 -133.33385,133.33398 z m 0,-88.88867 c 24.54666,4.8e-4 44.44577,-19.89864 44.44529,-44.44531 4.8e-4,-24.54666 -19.89863,-44.44579 -44.44529,-44.44532 -24.54588,6e-4 -44.4438,19.89942 -44.44332,44.44532 -4.8e-4,24.5459 19.89744,44.44471 44.44332,44.44531 z"
   id="path241"
   style="display:inline;vector-effect:non-scaling-stroke;fill:none;fill-opacity:1;stroke:#00349c;stroke-width:2;stroke-opacity:1;-inkscape-stroke:hairline"
   sodipodi:nodetypes="ccccccscccccccccscscs" /><path
   d="m 587.7793,135.2168 v 3.15039 1.29297 c 0.0118,0.002 0.0233,0.005 0.0351,0.008 -0.0118,0.0121 -0.0233,0.0231 -0.0351,0.0352 v 39.24415 c 7.2e-4,0.23169 -2e-5,0.46345 0,0.69531 v 0.002 0.0176 c 0,0.23794 7.4e-4,0.47512 0,0.71289 v 43.72852 h 3.14843 41.27735 c 0.006,-0.008 0.0119,-0.014 0.0176,-0.0215 0.006,0.007 0.0119,0.014 0.0176,0.0215 h 41.27735 3.14844 0.002 4.44336 40 v -0.0215 c 0.006,0.007 0.012,0.0141 0.0176,0.0215 h 14.48828 v 0.002 h -14.48828 c 5.0292,6.3e-4 9.99439,0.27932 14.8789,0.82226 10.24381,1.13866 20.13604,3.43837 29.54492,6.76368 h 0.002 v -0.002 h 0.002 v 0.002 c 1.55935,0.55115 3.10461,1.13137 4.63672,1.73828 0.0104,0.004 0.0209,0.008 0.0312,0.0117 14.7273,5.83814 28.16673,14.2252 39.77539,24.61523 16.51271,14.77927 29.32037,33.61369 36.85742,54.9375 0.26432,0.74782 0.52216,1.49808 0.77344,2.25195 0.20493,0.61481 0.40538,1.23282 0.60156,1.85157 2.59025,8.1696 4.41616,16.68033 5.39063,25.44726 0.16096,0.0759 0.32161,0.15041 0.48242,0.22656 0.11312,0.0536 0.22679,0.10841 0.33984,0.16211 v 51.36328 7.58594 4.44531 39.98243 36.875 3.14257 4.44336 7.58594 36.87695 39.98047 1.29493 c 14.51533,2.07619 29.35392,3.1504 44.44336,3.15039 4.91609,0 9.8057,-0.11235 14.66602,-0.33789 -4.58963,0.21298 -9.20622,0.3259 -13.84571,0.33789 -0.17668,4.5e-4 -0.35254,-1.7e-4 -0.52929,0 -0.097,8e-5 -0.19401,0 -0.29102,0 -0.0964,0 -0.19265,8e-5 -0.28906,0 -0.17732,-1.6e-4 -0.35595,4.5e-4 -0.5332,0 -14.80669,-0.0383 -29.36914,-1.11187 -43.6211,-3.15039 v 3.15039 44.41406 c 7.3e-4,-1.09131 0.0838,-2.16146 0.16406,-3.23242 -0.081,1.08087 -0.16403,2.16218 -0.16406,3.26367 -3e-5,1.78359 0.19595,3.5162 0.40235,5.24414 -0.20519,-1.71771 -0.40117,-3.44011 -0.40235,-5.21289 v 0.35937 c -10e-4,0.46664 -0.072,0.91537 -0.0781,1.38086 -0.0359,0.91121 -0.0643,1.8244 -0.1543,2.72071 -0.11658,3.4893 -0.21011,6.98596 -0.58984,10.40234 -1.0482,9.43032 -3.07985,18.56508 -5.99024,27.29687 -0.25129,0.75393 -0.50911,1.50409 -0.77344,2.25196 h -0.002 c -0.55079,1.55835 -1.1279,3.10361 -1.73437,4.63476 -7.6925,19.42103 -19.81671,36.60514 -35.12305,50.30469 4.80913,4.30421 9.93307,8.26567 15.33203,11.84375 -5.39898,-3.57768 -10.52297,-7.53771 -15.33203,-11.8418 -11.61713,10.39745 -25.06873,18.78644 -39.80859,24.625 -1.5315,0.60664 -3.07606,1.18736 -4.63477,1.73829 h -0.002 c -13.70654,4.84449 -28.44094,7.51027 -43.78907,7.58398 -0.0734,3.5e-4 -0.14722,0.002 -0.2207,0.002 h -0.43359 v 0.0234 c -0.006,-0.008 -0.0117,-0.0157 -0.0176,-0.0234 h -0.41602 -44.00976 -0.002 -4.48829 -25.44726 -14.15235 c -0.11838,1.4e-4 -0.23705,0 -0.35546,0 v 0.0234 c -0.006,-0.008 -0.0117,-0.0155 -0.0176,-0.0234 -0.11363,0 -0.22624,1.3e-4 -0.33985,0 h -14.14843 -29.9375 -0.002 -29.9375 c -1.78572,3.75905 -3.64401,7.47617 -5.57422,11.15039 -2.82599,5.3794 -5.80565,10.66567 -8.93164,15.85352 -12.56353,20.85021 -27.50428,40.10644 -44.44531,57.39453 v 0.002 c -0.3834,0.39125 -0.7669,0.7807 -1.15234,1.16993 -0.12643,0.12766 -0.25422,0.25536 -0.38086,0.38281 -0.97841,0.98462 -1.96366,1.96206 -2.95508,2.93359 h 4.48828 4.48828 39.21289 0.74414 0.74414 39.21485 4.48437 0.002 4.48632 39.95704 44.44336 0.002 4.48633 39.18554 0.77149 0.77148 c 14.9514,-0.0508 29.55427,-1.57767 43.67188,-4.44336 h 0.002 c 15.45763,-3.13774 30.3324,-7.87964 44.44336,-14.04492 15.86658,-6.93242 30.7686,-15.66457 44.44531,-25.9375 2.11487,-1.58854 4.20048,-3.21565 6.25586,-4.87695 14.30589,-11.56298 27.1485,-24.86408 38.20508,-39.58399 h -0.0176 c -0.21693,0 -0.4337,-9.2e-4 -0.65039,-0.002 h 0.66797 c 19.40925,-25.84051 33.31667,-56.04974 39.98242,-88.88867 1.96687,-9.68981 3.30363,-19.60792 3.96485,-29.71094 0.3105,-4.7444 0.47237,-9.53052 0.48046,-14.35156 v -0.10352 c -4.3e-4,0.21587 -0.0269,0.42584 -0.0391,0.63867 0.0133,-0.30497 0.0391,-0.60784 0.0391,-0.91601 10e-6,-0.0528 1.9e-4,-0.10548 0,-0.1582 v -0.11915 c -3e-5,-0.0184 -0.002,-0.0364 -0.002,-0.0547 -3e-5,-0.004 3e-5,-0.008 0,-0.0117 -3e-5,-10e-4 4e-5,-0.003 0,-0.004 -7e-5,-0.009 8e-5,-0.0182 0,-0.0273 -1.6e-4,-0.005 1.7e-4,-0.009 0,-0.0137 -2.7e-4,-0.0312 3.3e-4,-0.0625 0,-0.0937 0.002,0.0336 0.002,0.0675 0.002,0.10156 v -44.06445 -3.15039 -1.3379 -39.93945 -36.875 -7.58594 -4.44531 -40.01562 -39.9375 c -0.0182,-0.0186 -0.0365,-0.0381 -0.0547,-0.0566 0.0182,0.004 0.0365,0.008 0.0547,0.0117 v -4.44531 -7.58594 -36.47656 -0.33008 -0.10546 -0.32618 c -0.008,-4.82161 -0.16988,-9.60855 -0.48046,-14.35351 -0.60196,-9.19645 -1.76405,-18.24027 -3.45118,-27.09766 -0.16635,-0.87336 -0.33712,-1.74357 -0.51367,-2.61328 -1.22529,-6.03608 -2.69658,-11.98443 -4.40039,-17.83203 -7.56566,-25.96599 -19.74192,-49.96785 -35.58398,-71.05859 -12.64499,-16.83443 -27.62451,-31.81408 -44.45899,-44.45899 -10.11959,-7.6011 -20.91042,-14.35899 -32.26562,-20.16797 -3.99145,-2.0419 -8.05302,-3.9665 -12.17969,-5.76953 -14.11122,-6.16547 -28.98541,-10.90711 -44.44336,-14.04492 v 0.043 h -0.002 c -0.0121,-0.0124 -0.023,-0.0247 -0.0352,-0.0371 -0.005,-0.005 -0.0103,-0.0121 -0.0156,-0.0176 -14.34402,-2.90804 -29.19059,-4.43359 -44.39258,-4.43359 h -0.0176 -44.42578 -0.002 -3.14844 -1.33789 -39.55078 c 13.99326,0.0179 27.76886,0.95972 41.27148,2.76757 -13.6329,-1.8253 -27.54524,-2.76751 -41.67773,-2.76757 h -0.002 c -4.91607,-1e-5 -9.8057,0.1143 -14.66601,0.33984 4.72624,-0.21932 9.48073,-0.33373 14.25976,-0.33984 H 617.7168 592.26562 Z m 100.93359,35.98437 c -4.11108,2.68283 -8.1285,5.49974 -12.04492,8.44141 4.78935,3.59746 9.42814,7.38521 13.90625,11.34961 -4.47811,-3.9644 -9.1169,-7.7502 -13.90625,-11.34766 v -0.002 -0.002 c -2e-5,-0.30909 -10e-4,-0.61689 -0.002,-0.92578 2.1e-4,0.072 0.002,0.14285 0.002,0.21485 5.4e-4,0.23693 -2e-5,0.47388 0,0.71093 3.91642,-2.94166 7.93384,-5.75662 12.04492,-8.43945 z m 210.13477,52.90235 c 0.0138,-2e-5 0.0272,0 0.041,0 -0.76627,1e-5 -1.51278,0.0749 -2.26953,0.11328 0.7432,-0.0377 1.47613,-0.11258 2.22852,-0.11328 z m -44.3418,43.11328 c -0.0132,0.44594 -0.0606,0.88288 -0.0606,1.33203 -10e-6,0.72948 0.0745,1.43932 0.10938,2.16015 -0.0344,-0.71058 -0.1089,-1.40991 -0.10938,-2.1289 0,-0.0103 0,-0.0209 0,-0.0312 0,-0.0104 0,-0.019 0,-0.0293 2.9e-4,-0.43921 0.0476,-0.86659 0.0606,-1.30273 z m 49.48437,45.38086 c -1.55526,0.17896 -3.10517,0.38255 -4.70507,0.39648 -0.0343,-4e-5 -0.0693,3e-5 -0.10352,0 1.63535,-0.0106 3.21954,-0.21373 4.80859,-0.39648 z m -7.93164,0.2539 c 0.94029,0.0594 1.87482,0.14256 2.83008,0.14258 -0.0974,0 -0.19572,6.3e-4 -0.29297,0 -14.98889,0.0138 -29.72869,1.08759 -44.15039,3.15039 14.3888,-2.05809 29.09527,-3.13184 44.04883,-3.15039 -0.82238,-0.007 -1.6244,-0.0913 -2.43555,-0.14258 z m -4.25976,88.72852 c 2.35753,0.12401 4.70141,0.30274 7.08984,0.30273 -0.1412,0 -0.28272,4.4e-4 -0.42383,0 -0.0721,-2.2e-4 -0.14467,3.4e-4 -0.21679,0 -2.17279,-0.0102 -4.3022,-0.18973 -6.44922,-0.30273 z m -8.59571,88.40625 c 5.20212,0.36396 10.39082,0.78516 15.68555,0.78515 -0.14183,0 -0.28401,2.7e-4 -0.42578,0 -0.11248,-2.1e-4 -0.22545,3.8e-4 -0.33789,0 -5.03657,-0.0169 -9.96964,-0.43846 -14.92188,-0.78515 z m 30.70704,0.0781 c -4.73255,0.31707 -9.45084,0.69088 -14.25977,0.70703 -0.11243,3.8e-4 -0.22347,-2.1e-4 -0.33594,0 -0.13588,2.6e-4 -0.27226,-10e-6 -0.4082,0 5.06072,-3.8e-4 10.02754,-0.37385 15.00391,-0.70703 z M 809.34766,757.4375 H 810 h 0.65234 c -0.0738,3.5e-4 -0.14686,0.002 -0.2207,0.002 -0.14335,4.6e-4 -0.28818,0 -0.43164,0 -0.14374,0 -0.288,4.6e-4 -0.43164,0 -0.0738,-2.3e-4 -0.1469,-0.002 -0.2207,-0.002 z"
   style="display:none;vector-effect:non-scaling-stroke;fill:#38bb6f;fill-opacity:1;stroke:#00349c;stroke-width:2;-inkscape-stroke:hairline"
   id="path242" /><path
   d="m 809.99975,757.43737 c -171.82196,10e-5 -311.11121,-139.28924 -311.1111,-311.11133 -1.2e-4,-171.8221 139.28913,-311.11145 311.1111,-311.11133 171.82198,-1.3e-4 311.11125,139.28923 311.11115,311.11133 1e-4,171.8221 -139.28917,311.11143 -311.11115,311.11133 z m 0,-533.334 c 52.87582,-9e-5 101.43841,18.46708 139.58976,49.30358 50.40186,40.73817 82.63289,103.06464 82.63279,172.91908 2e-4,122.73027 -99.49234,222.22295 -222.22255,222.22265 -122.7302,3e-4 -222.22273,-99.49238 -222.22249,-222.22265 -2.3e-4,-122.73027 99.4923,-222.22289 222.22249,-222.22266 z m 0,88.88868 c -73.63842,-3.5e-4 -133.33424,59.69552 -133.33388,133.33398 -3.7e-4,73.63847 59.69545,133.33433 133.33388,133.33398 73.63844,3.6e-4 133.33427,-59.69551 133.3339,-133.33398 3.6e-4,-73.63847 -59.69546,-133.33433 -133.3339,-133.33398 z m 0,88.88867 c 24.54666,-4.8e-4 44.44577,19.89864 44.44529,44.44531 4.8e-4,24.54666 -19.89863,44.44579 -44.44529,44.44532 -24.54588,-6e-4 -44.4438,-19.89942 -44.44332,-44.44532 -4.8e-4,-24.5459 19.89744,-44.44471 44.44332,-44.44531 z"
   id="path254"
   style="display:inline;vector-effect:non-scaling-stroke;fill:none;fill-opacity:1;stroke:#00349c;stroke-width:2;stroke-opacity:1;-inkscape-stroke:hairline"
   sodipodi:nodetypes="ccccccscccccccccscscs" /></g><g
   id="g243"
   transform="translate(48.93182,-0.017845)"
   style="display:none"><path
     d="m 498.88867,135.2168 v 3.15039 1.29297 c 0.0186,-0.004 0.038,-0.008 0.0566,-0.0117 -0.006,0.006 -0.0114,0.0132 -0.0176,0.0195 -0.0124,0.0127 -0.0266,0.0244 -0.0391,0.0371 v 25.44922 0.0801 13.8086 c 9.4e-4,0.20597 0.002,0.41295 0.002,0.61914 10e-6,0.20619 -0.001,0.41122 -0.002,0.61719 v 43.82422 h 29.93945 14.49024 c 0.005,-0.007 0.0103,-0.0145 0.0156,-0.0215 v 0.0215 h 39.95508 0.0449 1.29493 3.14843 v -43.56641 -0.89258 -0.002 -0.85742 -39.08008 -0.0449 -1.29297 -3.15039 h -4.44336 -25.49414 -13.73437 c 0.18155,6.1e-4 0.36347,9e-4 0.54492,0.002 4.5055,0.0261 8.97785,0.18607 13.41602,0.47656 -4.61691,-0.30219 -9.27133,-0.46258 -13.96094,-0.47851 h -0.77149 -0.77148 -39.18359 z"
     style="display:inline;vector-effect:non-scaling-stroke;fill:#1e445c;fill-opacity:1;stroke:#00349c;stroke-width:2;-inkscape-stroke:hairline"
     id="path247"
     transform="translate(-48.93182,0.017845)" /><path
     d="m 632.22266,224.10547 v 12.88281 5.60742 15.45899 21.81445 6.20898 26.91602 c 0.1432,0 0.28659,-4.5e-4 0.42968,0 4.63399,0.0146 9.2114,0.26618 13.72266,0.74219 -4.65056,-0.49071 -9.37174,-0.74215 -14.15234,-0.74219 v 12.88281 5.60742 8.51563 6.94336 21.81445 33.10352 c 0.005,0.007 0.0101,0.0142 0.0156,0.0215 -0.005,0 -0.0102,0 -0.0156,0 v 18.49024 8.51562 6.94336 20.98828 0.004 6.9414 0.002 26.98047 c 0.48948,-0.6515 0.98206,-1.29941 1.47851,-1.94532 -0.4838,0.65907 -0.97007,1.31525 -1.46094,1.96875 h 0.25391 c -0.0853,5.9e-4 -0.17061,0.002 -0.25586,0.002 -0.005,0.007 -0.0104,0.0126 -0.0156,0.0195 v 0.002 33.92578 20.99024 15.45898 0.002 18.48829 h 0.40625 c -0.13545,5.4e-4 -0.27089,0.002 -0.40625,0.002 v 26.91406 6.20899 21.81445 15.45898 5.60743 0.002 12.88086 h 0.0176 0.39063 c -0.13009,4.2e-4 -0.26014,0.002 -0.39063,0.002 -0.005,0.007 -0.0121,0.0142 -0.0176,0.0215 v 54.91796 15.45704 5.60742 12.88281 h 0.82812 13.67969 25.44726 4.48829 v -3.14844 -1.33984 -3.0957 -22.35352 -14.48828 -44.46289 -3.14844 -1.29492 -25.4961 -13.55468 -0.33203 c -5.5e-4,-0.19995 1e-5,-0.39955 0,-0.59961 v -0.0176 c 0,-0.15863 -3.4e-4,-0.31802 0,-0.47656 9e-5,-0.0474 -1.3e-4,-0.0951 0,-0.14258 v -0.32617 -43.5 -4.44336 c -0.0124,-0.003 -0.0247,-0.005 -0.0371,-0.008 0.0124,-0.0127 0.0247,-0.0244 0.0371,-0.0371 v -3.09765 -36.23633 -0.15039 -0.45508 -0.48633 c -10e-4,-0.32351 -0.0588,-0.63178 -0.0684,-0.95312 0.009,0.27071 0.0676,0.52783 0.0684,0.80078 v -36.23633 -7.58594 -4.48828 -3.0957 -35.73633 a 311.11152,311.11111 0 0 1 -0.14649,2.45313 c -0.004,0.0544 -0.005,0.10969 -0.01,0.16406 -0.0338,0.40576 -0.10379,0.80053 -0.14844,1.20312 0.0445,-1.20678 0.23583,-2.37311 0.24804,-3.58789 0.0137,-0.45334 0.0566,-0.8988 0.0566,-1.35547 0,-0.006 0,-0.0119 0,-0.0176 v -0.53907 -0.56836 -38.83203 -0.043 -4.44531 -43.82422 -0.10937 -0.52735 -0.002 -0.45312 -0.0391 -0.11132 -13.88282 -22.35351 -3.09766 -1.33789 -3.15039 -43.82617 c -5.6e-4,-0.20595 0,-0.41307 0,-0.61914 v -0.0176 c 10e-6,-0.20008 -5.5e-4,-0.39965 0,-0.59961 v -13.88867 -22.35156 -3.14063 -4.44531 h -3.14844 -40.84375 c 4.61145,0.009 9.13638,0.36059 13.67773,0.64648 -4.68385,-0.29481 -9.35302,-0.6461 -14.11133,-0.64648 z m 32.39843,124.875 c -1.01762,0.53884 -2.03207,1.08305 -3.04297,1.63281 -5.58546,3.03763 -11.06941,6.24224 -16.4414,9.60547 5.37227,-3.3634 10.85565,-6.56966 16.4414,-9.60742 1.01041,-0.54949 2.02584,-1.09228 3.04297,-1.63086 z m -32.37695,52.90234 c 0.0879,2e-5 0.17798,-5.5e-4 0.26563,0 0.71424,0.005 1.41523,0.0618 2.12109,0.0996 -0.79334,-0.0425 -1.58287,-0.0992 -2.38672,-0.0996 z m 20.16211,32.26367 c 0.0103,0.0202 0.0209,0.0403 0.0312,0.0605 -3.06006,3.9655 -6.02688,8.0071 -8.89648,12.12109 1.6661,-2.38859 3.36493,-4.75279 5.0957,-7.09179 0.89477,-1.20922 1.79719,-2.41172 2.70898,-3.60742 0.35651,-0.49163 0.71063,-0.98577 1.06055,-1.48243 z m -9.22656,12.70118 c 1.87246,2.11411 3.68095,4.2869 5.41797,6.51757 0.003,0.004 0.005,0.008 0.008,0.0117 -1.73975,-2.23469 -3.55011,-4.41156 -5.42578,-6.52929 z m 6.47851,7.9414 c 0.9179,1.22608 1.8439,2.44602 2.7793,3.65821 -0.35933,-0.46566 -0.71747,-0.9307 -1.07422,-1.39844 -0.57202,-0.75 -1.13983,-1.504 -1.70508,-2.25977 z m -12.57031,35.60742 c -1.48069,0.16241 -2.95176,0.36184 -4.47266,0.375 -0.0389,3.4e-4 -0.0782,-2.1e-4 -0.11718,0 1.56072,-0.01 3.07108,-0.20853 4.58984,-0.375 z m 9.94531,88.45118 c -4.65666,0.51464 -9.38524,0.79009 -14.17383,0.8125 -0.0707,3.3e-4 -0.14202,-1.6e-4 -0.21289,0 4.86086,-0.0152 9.66151,-0.29028 14.38672,-0.8125 z"
     style="display:inline;vector-effect:non-scaling-stroke;fill:#1e445c;fill-opacity:1;stroke:#00349c;stroke-width:2;-inkscape-stroke:hairline"
     id="path246"
     transform="translate(-48.93182,0.017845)" /><path
     d="m 587.7793,224.10547 v 3.15039 1.29297 0.002 0.0449 3.09571 22.35351 c 0.10804,0.0513 0.21429,0.1009 0.32226,0.15235 -0.20329,4.47726 -0.3102,8.97926 -0.32226,13.5039 v 0.4336 c 1.8e-4,0.13815 0,0.27586 0,0.41406 0,0.1382 1.8e-4,0.2759 0,0.41406 v 0.43555 43.5957 4.44531 3.14063 22.35351 13.70899 0.24414 0.16015 c 1.6e-4,0.0573 -1e-4,0.11453 0,0.17188 3.2e-4,0.0674 -3e-5,0.13566 0,0.20312 0,0.005 0,0.0103 0,0.0156 0,0.0728 3.4e-4,0.14606 0,0.21875 -1e-4,0.0574 1.6e-4,0.11451 0,0.17187 v 0.16407 0.24023 39.16211 4.48828 4.48828 0.002 3.0957 36.02539 a 222.22252,222.22223 0 0 1 0,0.43555 c 0.007,-0.77535 0.0673,-1.53734 0.11328,-2.30274 -0.0495,0.82371 -0.10925,1.64529 -0.11328,2.48047 3.2e-4,0.0675 -3e-5,0.13355 0,0.20117 4.6655,-3.50429 9.47396,-6.8295 14.41406,-9.96484 -4.94035,3.13551 -9.74834,6.4623 -14.41406,9.9668 0,0.005 0,0.0122 0,0.0176 0,0.073 3.5e-4,0.1458 0,0.21875 0.004,0.92984 0.0896,1.83841 0.15039,2.75391 -0.0569,-0.85708 -0.14279,-1.70648 -0.15039,-2.57617 a 222.22252,222.22223 0 0 1 0,0.43555 v 36.02539 7.58593 44.03125 c 8e-5,0.0652 -5e-5,0.13015 0,0.19532 3.4e-4,0.0727 0,0.14598 0,0.21875 0,0.005 0,0.0103 0,0.0156 v 0.002 c -3e-5,0.0666 3.2e-4,0.13275 0,0.19922 -5e-5,0.0656 8e-5,0.13174 0,0.19727 v 36.44336 c 1.35736,0.47973 2.72442,0.93838 4.10156,1.375 -1.37714,-0.43662 -2.74419,-0.89331 -4.10156,-1.37305 v 3.0957 c 0.0118,0.0121 0.0233,0.0231 0.0351,0.0352 -0.0118,0.002 -0.0233,0.005 -0.0351,0.008 v 4.44532 43.59765 c 3.1e-4,-0.11599 0.0232,-0.22629 0.0254,-0.34179 -0.003,0.19215 -0.0245,0.37966 -0.0254,0.57226 5.6e-4,0.20631 0,0.41271 0,0.61914 0,0.20581 5.6e-4,0.41152 0,0.61719 -9e-5,0.0312 9e-5,0.0625 0,0.0937 v 0.002 0.13281 c -7e-5,-0.0249 -0.002,-0.0494 -0.002,-0.0742 v 0.39453 c -0.0162,4.41683 -0.12572,8.81197 -0.32422,13.18359 -0.005,0.10458 -0.009,0.2099 -0.0137,0.31445 -0.35882,7.73242 -1.00076,15.38997 -1.91406,22.96485 -0.0744,0.61722 -0.15049,1.23351 -0.22852,1.84961 -0.0436,0.34428 -0.0881,0.68927 -0.13281,1.0332 -0.0504,0.38768 -0.1005,0.77488 -0.15234,1.16211 -0.0552,0.41212 -0.11118,0.82472 -0.16797,1.23633 -0.0705,0.51098 -0.14187,1.02106 -0.21484,1.53125 -2.74545,19.19378 -7.24409,37.82243 -13.32618,55.71875 -2.90263,8.54089 -6.16514,16.91633 -9.77148,25.10547 -1.12146,2.54657 -2.27763,5.07568 -3.46484,7.58593 -0.0222,0.047 -0.0441,0.0936 -0.0664,0.14063 -0.0534,0.11287 -0.10658,0.2251 -0.16016,0.33789 h 29.9375 0.002 29.9375 13.67578 0.8125 0.0176 v -12.88281 -5.60742 -15.45704 -54.91796 -0.0215 h -0.002 c -0.13675,0 -0.27343,-0.002 -0.41015,-0.002 h 0.41211 v -12.88281 -5.60743 -15.45898 -21.81445 -6.20899 -26.91406 h -0.002 c -0.13636,0 -0.27224,-10e-4 -0.4082,-0.002 h 0.41016 V 561.16992 545.71094 524.7207 490.79492 c -0.005,-0.007 -0.0106,-0.0148 -0.0156,-0.0215 h -0.002 c -0.0854,-4e-5 -0.1706,-10e-4 -0.25586,-0.002 h 0.25586 c 0.006,-0.008 0.0119,-0.0158 0.0176,-0.0234 v -26.98047 -0.002 -6.9414 l -0.002,-0.002 0.002,-0.002 v -20.98828 -6.94336 -8.51562 -18.49024 -0.0215 V 368.75781 346.94336 340 v -8.51563 -5.60742 -12.88281 -26.91602 -6.20898 -21.81445 -15.45899 -5.60742 -12.88281 h -0.002 -0.0156 c -0.14533,1e-5 -0.29028,-2.9e-4 -0.43555,0 h -40.8418 z m 44.01172,88.88867 c 0.14363,-4.5e-4 0.28594,0 0.42968,0 -4.75406,-2e-5 -9.36493,0.54607 -13.99023,1.03125 4.48601,-0.47069 8.95328,-1.01669 13.56055,-1.03125 z m 0.14453,88.88867 c 0.0954,-6e-4 0.18964,0 0.28515,0 -1.63778,4e-5 -3.2225,0.20051 -4.81445,0.37305 1.49961,-0.16268 2.98897,-0.36329 4.5293,-0.37305 z m -5.07813,88.47071 c 1.67813,0.20291 3.35779,0.40738 5.08789,0.41796 -0.0381,-2e-4 -0.0771,3.3e-4 -0.11523,0 -1.69091,-0.0146 -3.33155,-0.21936 -4.97266,-0.41796 z m -7.91992,88.41992 c 4.25164,0.42227 8.49799,0.87255 12.85742,0.88672 -0.0705,-1.6e-4 -0.14029,3.3e-4 -0.21094,0 -4.28768,-0.0201 -8.4633,-0.47107 -12.64648,-0.88672 z m -31.1582,85.28711 v 0.0449 h -0.002 c -0.0175,0.004 -0.0353,0.006 -0.0527,0.01 a 311.11152,311.11111 0 0 0 0.0176,-0.0176 311.11152,311.11111 0 0 0 0.0351,-0.0352 311.11152,311.11111 0 0 0 0.002,-0.002 z M 619.29883,668 c 4.14182,0.23819 8.26753,0.53919 12.46679,0.54883 -0.0998,-10e-5 -0.19906,3.3e-4 -0.29882,0 -4.09857,-0.0136 -8.12457,-0.31617 -12.16797,-0.54883 z"
     style="display:inline;vector-effect:non-scaling-stroke;fill:#1e445c;fill-opacity:1;stroke:#00349c;stroke-width:2;-inkscape-stroke:hairline"
     id="path245"
     transform="translate(-48.93182,0.017845)" /><path
     d="m 1427.2936,614.44431 v 0.002 h -3.1484 v 3.15039 1.29297 0.002 0.0449 3.09571 81.30273 h 3.1484 1.2949 3.1406 v 0 h 125.7462 v -0.0215 c 0,0.007 0.012,0.0143 0.018,0.0215 h 0.125 c 8.6599,0.027 16.7358,2.53056 23.5586,6.83984 8.7579,5.53153 15.449,14.03764 18.6543,24.09961 1.33,4.17533 2.0598,8.61898 2.0879,13.22852 v -0.23438 c 2e-4,0.10515 0,0.21123 0,0.31641 0,0.0275 -10e-5,0.0545 0,0.082 0,-0.7736 0.07,-1.53123 0.1113,-2.29492 -0.043,0.80037 -0.1113,1.59511 -0.1113,2.40625 0,0.0375 -10e-5,0.0758 0,0.11328 -10e-5,0.0282 0,0.0558 0,0.084 v 125.55083 7.58593 7.58594 36.7793 c 0,0.0265 0,0.0536 0,0.0801 0,0.0267 0,0.0534 0,0.0801 v 14.42579 25.44726 0.0449 0.002 4.44336 43.76757 0.5176 c 10e-5,0.027 0,0.053 0,0.08 0,-0.9761 0.086,-1.9306 0.1503,-2.8906 -0.067,0.986 -0.1503,1.9678 -0.1503,2.9707 v 0.016 c 10e-5,0.5325 0.042,1.0546 0.07,1.58 -0.024,-0.3058 -0.069,-0.6063 -0.07,-0.9179 -2e-4,-0.041 0,-0.084 0,-0.125 -3e-4,-0.062 10e-5,-0.1252 0,-0.1875 -0.1263,15.6801 -8.3726,29.426 -20.7403,37.2382 -2.4579,1.5526 -5.078,2.8713 -7.8301,3.9239 -4.8127,1.8406 -10.0279,2.8684 -15.4765,2.916 h -0.1172 c -0.087,5e-4 -0.1762,0 -0.2637,0 0,0.01 -0.01,0.014 -0.016,0.021 v -0.021 c -0.092,0 -0.1852,0 -0.2773,0 h -36.5821 -3.1406 -4.4433 v 0 h -3.1485 -40.543 c -0.2451,8e-4 -0.489,0 -0.7343,0 0,0.01 -0.012,0.014 -0.018,0.021 v -0.021 0 c -0.2514,0 -0.5028,0 -0.7539,0 h -36.1036 -3.1406 -1.2949 -3.1484 v 0 h -3.1485 c -2.7454,19.1938 -7.2441,37.8224 -13.3261,55.7187 -2.9027,8.5409 -6.1652,16.9164 -9.7715,25.1055 -1.1215,2.5466 -2.2777,5.0757 -3.4649,7.5859 -0.022,0.047 -0.044,0.094 -0.066,0.1407 -0.053,0.1128 -0.1065,0.2251 -0.1601,0.3379 h 29.9375 v 0 h 29.9375 13.6758 0.8125 0.018 0.8281 13.6797 25.4472 4.4883 v 0 h 43.7891 0.6367 0.018 0.6543 c 3.8377,-0.018 7.6361,-0.1991 11.3906,-0.5352 7.5078,-0.6722 14.8362,-1.9672 21.9336,-3.832 3.5484,-0.9323 7.0384,-2.0058 10.4649,-3.2168 v 0 0 c 1.5587,-0.5509 3.1032,-1.1297 4.6347,-1.7363 7.3698,-2.9193 14.4188,-6.4769 21.0762,-10.6036 6.6574,-4.1271 12.9238,-8.8227 18.7324,-14.0214 v 0 c 3.8265,-3.4249 7.4541,-7.0673 10.8633,-10.9082 10.2275,-11.5228 18.4904,-24.8308 24.2598,-39.3965 0.6062,-1.5307 1.1837,-3.077 1.7343,-4.6348 v 0 c 0.2643,-0.7478 0.5222,-1.4981 0.7735,-2.252 2.9102,-8.7314 4.9421,-17.8669 5.9902,-27.2968 0.3756,-3.3791 0.4711,-6.8358 0.5859,-10.2871 10e-4,-0.038 0,-0.077 0,-0.1153 0.09,-0.8963 0.1184,-1.8095 0.1543,-2.7207 0,-0.2494 0.027,-0.4931 0.047,-0.7383 10e-4,-0.1746 0.027,-0.3428 0.027,-0.5175 10e-4,-0.096 0,-0.1927 0,-0.2891 v -0.1953 -0.029 0 -0.021 -0.01 -0.1953 -0.1641 -44.05466 -3.15039 -1.29493 -39.56836 -0.41211 -0.002 -0.44531 -36.42969 -7.58594 -4.44336 -3.14257 -36.25586 c -9e-4,0.49658 -0.083,0.97208 -0.092,1.46679 0.01,-0.69456 0.09,-1.3714 0.09,-2.06836 v -0.0176 c 0,-0.65934 -0.079,-1.29981 -0.088,-1.95703 0.01,0.4626 0.089,0.90685 0.09,1.37109 v -39.39649 -4.44531 -7.58594 -36.42968 -0.0371 -0.22852 -0.32617 c 0,-0.60173 -0.062,-1.18928 -0.088,-1.78516 -0.012,-0.84776 -0.1145,-1.67175 -0.1425,-2.51562 -0.1162,-3.49866 -0.2111,-7.00432 -0.5918,-10.42969 -0.9745,-8.76662 -2.8005,-17.27793 -5.3907,-25.44726 -0.196,-0.61841 -0.3967,-1.2371 -0.6015,-1.85157 -0.2513,-0.75387 -0.5091,-1.50413 -0.7735,-2.25195 -7.537,-21.32315 -20.3452,-40.15855 -36.8574,-54.9375 -11.6086,-10.39003 -25.0481,-18.77709 -39.7754,-24.61523 0,0.005 0,0.0122 0,0.0176 -0.01,-0.009 -0.019,-0.02 -0.027,-0.0293 -1.5321,-0.60691 -3.0773,-1.18713 -4.6367,-1.73828 v 0 0 c -9.4086,-3.32518 -19.3014,-5.62504 -29.5449,-6.76368 -4.8841,-0.54284 -9.8502,-0.82162 -14.8789,-0.82226 h -0.018 v 0 h -39.998 -4.4434 v 0 h -3.1484 v -0.002 h -41.2774 v 0.002 c 0.1446,1e-5 0.2891,-2.9e-4 0.4336,0 4.6115,0.009 9.1364,0.36059 13.6777,0.64648 -4.6838,-0.29481 -9.353,-0.6461 -14.1113,-0.64648 h -0.018 v 0 h -0.016 v -0.002 z m 206.2812,313.95312 c -1.203,1.42019 -2.4773,2.77778 -3.621,4.24805 0,-0.004 0.01,-0.008 0.01,-0.0117 1.141,-1.46646 2.4132,-2.8197 3.6132,-4.23633 z"
     style="display:inline;vector-effect:non-scaling-stroke;fill:#1e445c;fill-opacity:1;stroke:#00349c;stroke-width:2;-inkscape-stroke:hairline"
     id="path244"
     sodipodi:nodetypes="cccccccccccccccccssccsccsscccccsccccccccccsscsccsscccccccccccccccscccccccssssccccccccccccccccsscccscccssccssccccccccccccccccccccccccccssccccccccccsssscsccccccsscccccccccccscccccscccs" /><path
     d="m 538.84748,135.21715 v 88.88703 l 175.33213,0.002 h 0.0176 0.35156 c 4.90889,0.0133 9.75679,0.29199 14.52734,0.82226 10.24355,1.13864 20.13626,3.4385 29.54492,6.76368 h 0.002 v -0.002 h 0.002 v 0.002 c 1.55935,0.55115 3.10461,1.13137 4.63672,1.73828 0.0102,0.004 0.0212,0.008 0.0312,0.0117 4.12103,1.63364 8.11207,3.51235 12.01953,5.5332 1.24725,0.64496 2.43821,1.37189 3.66211,2.05469 2.62964,1.46715 5.21818,2.9888 7.73437,4.625 1.35121,0.87851 2.66759,1.7932 3.98438,2.71875 2.33512,1.64138 4.60641,3.35458 6.82812,5.13867 1.23473,0.99144 2.46987,1.97193 3.66797,3.00586 0.61286,0.52885 1.27586,0.99932 1.87891,1.53906 0.94749,0.84803 1.75494,1.83846 2.67773,2.71289 2.39968,2.2738 4.72958,4.60368 6.95508,7.04883 1.3504,1.48353 2.6543,2.99356 3.9375,4.53711 2.0901,2.51398 4.065,5.11031 5.96875,7.77539 1.13918,1.59464 2.28589,3.17054 3.35547,4.81641 1.93181,2.97239 3.68392,6.05588 5.37891,9.18554 0.79365,1.46535 1.66069,2.87722 2.40039,4.375 2.31679,4.69093 4.42239,9.50355 6.18359,14.48633 0.26432,0.74782 0.52216,1.49808 0.77344,2.25195 0.20485,0.61457 0.40546,1.23306 0.60156,1.85157 2.59017,8.16933 4.41613,16.68064 5.39063,25.44726 0.38073,3.42537 0.47561,6.93103 0.59179,10.42969 0.0827,0.82869 0.10609,1.67416 0.14258,2.51562 0.008,0.52524 0.0864,1.0319 0.0879,1.5586 v 266.85556 c 0.001,-0.30291 0.0153,-0.60367 0.0332,-0.90235 -0.0194,0.36555 -0.0332,0.73355 -0.0332,1.10352 v 0.002 c 0,0.37227 0.0125,0.74061 0.0332,1.10742 -0.0193,-0.30074 -0.0319,-0.60263 -0.0332,-0.9082 v 0.18945 c -6e-5,0.0294 0,0.0586 0,0.0879 v 0.008 0.002 l -0.002,0.002 v 0.002 0.002 c 0,4.72444 -0.27894,9.3918 -0.77539,13.98828 -0.0144,0.13768 -0.0296,0.27469 -0.0449,0.41211 -1.04816,9.4299 -3.08006,18.56544 -5.99024,27.29687 -0.25126,0.75385 -0.50914,1.50417 -0.77344,2.25196 h -0.002 c -0.55062,1.55784 -1.12811,3.1041 -1.73437,4.63476 -7.6925,19.42103 -19.81671,36.60514 -35.12305,50.30469 v 0.002 c -3.06654,2.74459 -6.2777,5.32848 -9.58984,7.78321 -1.06463,0.78907 -2.19654,1.48441 -3.28516,2.24218 -2.29387,1.59663 -4.59439,3.17781 -6.99023,4.63086 -1.37501,0.83405 -2.80591,1.57424 -4.2129,2.35938 -2.21733,1.23726 -4.43945,2.4602 -6.73242,3.57226 -1.54625,0.75001 -3.13008,1.42198 -4.70898,2.11329 -1.43682,0.6291 -2.82633,1.34443 -4.28906,1.92382 -1.5315,0.60664 -3.07606,1.18736 -4.63477,1.73829 h -0.002 c -13.70104,4.84254 -28.43001,7.50822 -43.77149,7.58398 -0.006,3e-5 -0.0114,-3e-5 -0.0176,0 -0.0276,1.3e-4 -0.0543,0.002 -0.082,0.002 -0.0459,5.7e-4 -0.0928,0 -0.13867,0 0.0735,-2.3e-4 0.14727,-0.002 0.2207,-0.002 h -0.67187 -0.63672 c 0.0734,3.5e-4 0.14722,0.002 0.2207,0.002 H 508.90793 c -1.78572,3.75905 -3.64401,7.47617 -5.57422,11.15039 -2.82597,5.37937 -5.80567,10.6657 -8.93164,15.85352 -12.56331,20.84985 -27.50464,40.10667 -44.44531,57.39453 v 0.002 c -0.3834,0.39125 -0.7669,0.7807 -1.15234,1.16993 -0.12622,0.12744 -0.25443,0.25557 -0.38086,0.38281 -0.97841,0.98462 -1.96366,1.96206 -2.95508,2.93359 h 4.48828 4.48828 258.95126 0.0117 0.77149 0.77148 c 14.9514,-0.0508 29.55427,-1.57767 43.67188,-4.44336 h 0.002 c 15.45763,-3.13774 30.3324,-7.87964 44.44336,-14.04492 15.8669,-6.93248 30.76835,-15.66438 44.44531,-25.9375 2.11487,-1.58854 4.20048,-3.21565 6.25586,-4.87695 7.15295,-5.78149 13.93935,-11.99679 20.32031,-18.60742 6.38074,-6.61082 12.35458,-13.61673 17.88282,-20.97657 h -0.0156 c 0,0 0.0156,0 0.0176,-0.002 19.4092,-25.84048 33.31668,-56.0498 39.98242,-88.88867 1.96684,-9.68972 3.30363,-19.60802 3.96485,-29.71094 0.3105,-4.7444 0.48046,-9.53051 0.48046,-14.35156 v -0.0469 c -3.2e-4,0.0152 -10e-4,0.0298 -0.002,0.0449 -0.006,0.18043 -0.0268,0.35787 -0.0371,0.53711 0.0133,-0.30497 0.0391,-0.60784 0.0391,-0.91601 10e-6,-0.0528 1.9e-4,-0.10548 0,-0.1582 -1.7e-4,-0.0519 -0.002,-0.10241 -0.002,-0.1543 -2.9e-4,-0.006 0,-0.0134 0,-0.0195 -3e-5,-0.004 3e-5,-0.008 0,-0.0117 -3e-5,-0.001 4e-5,-0.003 0,-0.004 -7e-5,-0.009 8e-5,-0.0182 0,-0.0273 -1.6e-4,-0.005 1.7e-4,-0.009 0,-0.0137 -2.6e-4,-0.0311 3.3e-4,-0.0627 0,-0.0937 5.2e-4,0.009 0.002,0.0186 0.002,0.0273 v -265.83005 -0.33008 -0.0527 -0.0527 c 0,-0.71289 -0.0745,-1.40696 -0.0859,-2.11719 -0.0316,-3.26678 -0.29962,-6.47348 -0.47071,-9.70508 -0.098,-1.85152 -0.1245,-3.72132 -0.26757,-5.56055 -0.6422,-8.25132 -1.5886,-16.42072 -3.10743,-24.39453 -0.16635,-0.87336 -0.33712,-1.74357 -0.51367,-2.61328 -1.22519,-6.03542 -2.69678,-11.98309 -4.40039,-17.83008 v -0.002 c -7.5656,-25.96577 -19.74212,-49.96798 -35.58398,-71.05859 -12.64499,-16.83443 -27.62451,-31.81408 -44.45899,-44.45899 -10.11922,-7.60074 -20.9109,-14.3592 -32.26562,-20.16797 -7.19881,-3.68269 -14.76577,-6.71166 -22.39258,-9.60547 -2.57369,-0.97641 -5.11212,-2.02178 -7.73047,-2.90429 -8.6317,-2.90907 -17.43051,-5.46368 -26.5,-7.30469 v 0.043 h -0.002 c -0.0121,-0.0124 -0.023,-0.0247 -0.0352,-0.0371 -0.005,-0.005 -0.0108,-0.0105 -0.0156,-0.0156 -7.17231,-1.45412 -14.47007,-2.56342 -21.875,-3.30859 -7.4049,-0.74489 -14.91659,-1.12695 -22.51758,-1.12695 h -0.0176 -0.48242 c -44.27735,-0.006 -130.5547,0.009 -174.83205,-0.001 z"
     style="display:inline;vector-effect:non-scaling-stroke;fill:#1e445c;fill-opacity:1;stroke:#00349c;stroke-width:2;-inkscape-stroke:hairline"
     id="path243"
     sodipodi:nodetypes="cccccscccccscsssssssssssssssssscccccsscccsccccsccscccccsssssssccsscccccccssccsscccccccccsssccccssscccsscsscsccccccscscssccssssccccsccscccc" /><path
     d="m 227.0467,135.21715 c -13.2247,0.0669 -25.99498,2.05941 -38.04297,5.71093 -1.92314,0.58287 -3.8276,1.20671 -5.71289,1.87305 -1.55884,0.55097 -3.1051,1.1316 -4.63672,1.73828 -6.07239,2.40532 -11.9247,5.24312 -17.52149,8.47656 -7.9888,4.61539 -15.45381,10.03622 -22.28515,16.1504 -15.30711,13.70014 -27.43055,30.88452 -35.12305,50.30664 -0.60628,1.53074 -1.1857,3.07488 -1.73633,4.63281 h 22.35352 14.08398 c 0.1399,-0.001 0.28167,-0.002 0.42188,-0.002 0.14105,-1e-5 0.28113,6.4e-4 0.42187,0.002 h 40.8711 3.15039 7.58593 22.35157 14.08593 c 0.13464,-0.001 0.26938,-0.002 0.4043,-0.002 0.005,-0.007 0.0122,-0.0144 0.0176,-0.0215 v 0.0215 c 0.14105,-1e-5 0.28113,6.4e-4 0.42187,0.002 h 36.4375 7.58399 4.49023 39.57227 0.36523 c 0.006,-0.008 0.0117,-0.0156 0.0176,-0.0234 v 0.0234 h 0.38477 36.47461 3.14062 4.44332 v 3.15039 1.33789 3.09766 l 1e-4,392.92983 v 0 c -0.0174,4.60412 -0.26733,9.1519 -0.74023,13.63477 -0.75641,7.17028 -2.08056,14.17152 -3.92774,20.95703 -0.47882,1.75892 -0.99279,3.50324 -1.54101,5.23242 -0.0886,0.27952 -0.17913,0.55918 -0.26954,0.83789 -0.35522,1.09511 -0.72482,2.18315 -1.10742,3.26563 -3.35809,9.50106 -7.76196,18.50869 -13.07422,26.88281 -3.28643,5.18067 -6.92055,10.11962 -10.86914,14.7832 -3.99427,4.71754 -8.3097,9.1525 -12.91406,13.27344 -3.86399,3.45831 -7.93194,6.69526 -12.18164,9.68945 -9.85483,6.94339 -20.69261,12.58609 -32.26367,16.67579 h -0.002 c -0.74744,0.26416 -1.4965,0.52228 -2.25,0.77343 -2.32293,0.77427 -4.67491,1.4849 -7.05273,2.13282 -11.06393,3.01474 -22.70043,4.64201 -34.71094,4.67968 h -0.42773 -0.42774 -0.125 c -0.30129,-7.3e-4 -0.59157,-0.0449 -0.89257,-0.0469 -3.79829,-0.0406 -7.55962,-0.23207 -11.27539,-0.58399 -11.01698,-1.0434 -21.65343,-3.39549 -31.72461,-6.95507 -1.55899,-0.55102 -3.10496,-1.13154 -4.63672,-1.73829 -6.07238,-2.40531 -11.9247,-5.24312 -17.52149,-8.47656 -7.98881,-4.61539 -15.45381,-10.03621 -22.28515,-16.15039 -15.30665,-13.69974 -27.43052,-30.88328 -35.12305,-50.30469 -0.60638,-1.53093 -1.18562,-3.07663 -1.73633,-4.63476 -3.549371,-10.04225 -5.903071,-20.64387 -6.951171,-31.62696 -0.37918,-3.97347 -0.61015,-7.98915 -0.63281,-12.05664 -5.4e-4,-0.16077 -0.002,-0.32156 -0.002,-0.48242 -7e-5,-0.0651 3e-5,-0.13017 0,-0.19531 v -0.0801 c 0,-0.028 -1e-5,-0.0579 0,-0.0859 3e-5,-0.0645 -7e-5,-0.1289 0,-0.19336 v -44.16796 -3.15039 -26.78907 -14.13086 c -3.4e-4,-0.12435 0,-0.24861 0,-0.37304 0,-0.12422 -3.3e-4,-0.24891 0,-0.37305 v -36.48633 c -10.53986,3.72531 -20.47109,8.73809 -29.60546,14.84961 -1.41757,0.94845 -2.81686,1.92512 -4.19532,2.92578 -1.15991,0.8841 -2.32542,1.75887 -3.49804,2.62696 -2.26771,1.7622 -4.47751,3.59601 -6.625004,5.49804 -0.17402,0.15413 -0.348277,0.30982 -0.521484,0.46485 -9.709204,8.68997 -18.135796,18.78149 -24.964844,29.95703 -0.570284,0.93325 -1.12994,1.87408 -1.677734,2.82226 -4.049057,7.00855 -7.479452,14.41894 -10.214844,22.15821 -0.672532,1.9028 -1.303138,3.82624 -1.890625,5.76757 -3.645607,12.04681 -5.631151,24.81497 -5.693359,38.03711 -4.3e-4,0.21299 -0.002,0.4295 -0.002,0.64258 0,0.21195 0.0015,0.42292 0.002,0.63477 0.0023,0.49282 0.06072,0.97135 0.06836,1.46289 0.03225,4.8422 0.787974,9.49008 1.039062,14.27734 0.208805,3.98107 0.506178,7.93301 0.863282,11.87305 0.691927,5.44186 1.394462,10.88172 2.472656,16.19336 6.665893,32.83896 20.573001,63.05015 39.982422,88.89062 h 0.01563 0.01758 c -0.0055,0.007 -0.01212,0.0142 -0.01758,0.0215 12.641832,16.82622 27.617522,31.7996 44.445312,44.43945 7.086681,5.32301 14.501001,10.23192 22.208991,14.69141 7.16798,4.14706 14.59091,7.90567 22.23633,11.24609 14.11121,6.16545 28.98542,10.90713 44.44336,14.04492 5.29791,1.07541 10.72875,1.76198 16.15625,2.45313 9.14635,0.83025 18.2126,1.95726 27.57031,1.97851 0.0916,2.9e-4 0.17986,0.0135 0.27148,0.0137 h 0.44727 0.44726 c 0.0916,-1.8e-4 0.17988,-0.0134 0.27149,-0.0137 9.35598,-0.0212 18.41974,-1.14661 27.56445,-1.97656 5.42784,-0.69109 10.85995,-1.37969 16.1582,-2.45508 h 0.002 c 12.66687,-2.5712 24.942,-6.21948 36.72656,-10.8457 2.59666,-1.01936 5.17085,-2.086 7.71875,-3.19922 11.32255,-4.94699 22.15343,-10.81037 32.39844,-17.49609 4.11177,-2.68328 8.12787,-5.49922 12.04492,-8.44141 2.11515,-1.58874 4.20216,-3.21543 6.25781,-4.87695 10.5994,-8.56715 20.39445,-18.08773 29.25586,-28.4336 3.09272,-3.6108 6.07211,-7.32292 8.93164,-11.1289 v -0.0215 h 0.0176 c 2.62722,-3.49771 5.15293,-7.07698 7.57422,-10.73047 0.80888,-1.22052 1.60537,-2.44828 2.39062,-3.68554 0.45783,-0.72137 0.91162,-1.44686 1.36133,-2.17383 13.52778,-21.86797 23.36981,-46.25755 28.65625,-72.30078 0.17655,-0.86972 0.34732,-1.7399 0.51367,-2.61328 0.0693,-0.36384 0.13756,-0.72929 0.20508,-1.09375 0.0906,-0.48892 0.18021,-0.97677 0.26758,-1.4668 0.0782,-0.43841 0.15488,-0.87711 0.23047,-1.31641 0.12287,-0.71402 0.27219,-1.42583 0.35742,-2.14648 1.08805,-9.20002 2.02455,-16.56197 2.8418,-34.70117 5.6e-4,-0.1611 0.027,-0.31541 0.0273,-0.47657 2e-4,-0.043 -1.6e-4,-0.0859 0,-0.1289 -3.6e-4,-0.16584 0,-0.33213 0,-0.49805 v -0.002 c 0,-0.16663 -3.6e-4,-0.33346 0,-0.5 -1.5e-4,-0.0413 1.9e-4,-0.0817 0,-0.12305 -0.001,-0.58604 -0.11866,-1.14128 -0.12305,-1.72656 0.009,0.53923 0.12004,1.05102 0.12305,1.5918 l 10e-5,-483.68771 v -1.29297 -3.15039 h -7.58398 -22.35352 -13.73437 -0.75391 -0.0176 -0.77148 -13.73451 -29.93945 -44.07227 -0.22851 -0.125 -0.0176 -0.14062 c -0.32188,0.001 -0.6329,0.043 -0.95313,0.0508 0.24152,-0.0172 0.48305,-0.0342 0.72461,-0.0508 h -39.58789 -4.48828 -43.75391 -0.68945 z"
     style="display:inline;vector-effect:non-scaling-stroke;fill:#1e445c;fill-opacity:1;stroke:#00349c;stroke-width:2;-inkscape-stroke:hairline"
     id="path235"
     sodipodi:nodetypes="csssssscccsccccccccccccccccccccccccccsssssssssccsscccccsssssssscsssscccccsccsccscsssscsccscsccccsssscscccccccsssssscccssssssssscscssccccccccccccccccccccccccccc"
     inkscape:label="J" /></g>
<g
   id="g253"
   transform="matrix(0.96681788,0,0,0.96681788,-5.3305169,-24.487796)"
   style="display:inline"><path
     d="m 498.88867,135.2168 v 3.15039 1.29297 c 0.0186,-0.004 0.038,-0.008 0.0566,-0.0117 -0.006,0.006 -0.0114,0.0132 -0.0176,0.0195 -0.0124,0.0127 -0.0266,0.0244 -0.0391,0.0371 v 25.44922 0.0801 13.8086 c 9.4e-4,0.20597 0.002,0.41295 0.002,0.61914 10e-6,0.20619 -0.001,0.41122 -0.002,0.61719 v 43.82422 h 29.93945 14.49024 c 0.005,-0.007 0.0103,-0.0145 0.0156,-0.0215 v 0.0215 h 39.95508 0.0449 1.29493 3.14843 v -43.56641 -0.89258 -0.002 -0.85742 -39.08008 -0.0449 -1.29297 -3.15039 h -4.44336 -25.49414 -13.73437 c 0.18155,6.1e-4 0.36347,9e-4 0.54492,0.002 4.5055,0.0261 8.97785,0.18607 13.41602,0.47656 -4.61691,-0.30219 -9.27133,-0.46258 -13.96094,-0.47851 h -0.77149 -0.77148 -39.18359 z"
     style="display:none;vector-effect:non-scaling-stroke;fill:#1e445c;fill-opacity:1;stroke:#00349c;stroke-width:2;-inkscape-stroke:hairline"
     id="path248"
     transform="translate(-48.93182,0.017845)" /><path
     d="m 583.29084,224.12331 2e-5,533.33245 h 44.44336 l -2.9e-4,-533.33238 c -1.22038,-0.0182 -29.62872,0.0368 -44.44309,-7e-5 z"
     style="display:inline;vector-effect:non-scaling-stroke;fill:#1e445c;fill-opacity:1;stroke:#00349c;stroke-width:2;-inkscape-stroke:hairline"
     id="path249"
     sodipodi:nodetypes="ccccc" /><path
     d="m 538.84748,224.12331 v 399.15267 c 3.1e-4,-0.11599 0.0232,-0.22629 0.0254,-0.34179 -0.003,0.19215 -0.0245,0.37966 -0.0254,0.57226 5.6e-4,0.20631 0,0.41271 0,0.61914 0,0.20581 5.6e-4,0.41152 0,0.61719 -9e-5,0.0312 9e-5,0.0625 0,0.0937 v 0.002 0.13281 c -7e-5,-0.0249 -0.002,-0.0494 -0.002,-0.0742 v 0.39453 c -0.0162,4.41683 -0.12572,8.81197 -0.32422,13.18359 -0.005,0.10458 -0.009,0.2099 -0.0137,0.31445 -0.35882,7.73242 -1.00076,15.38997 -1.91406,22.96485 -0.0744,0.61722 -0.15049,1.23351 -0.22852,1.84961 -0.0436,0.34428 -0.0881,0.68927 -0.13281,1.0332 -0.0504,0.38768 -0.1005,0.77488 -0.15234,1.16211 -0.0552,0.41212 -0.11118,0.82472 -0.16797,1.23633 -0.0705,0.51098 -0.14187,1.02106 -0.21484,1.53125 -2.74545,19.19378 -7.24409,37.82243 -13.32618,55.71875 -2.90263,8.54089 -6.16514,16.91633 -9.77148,25.10547 -1.12146,2.54657 -2.27763,5.07568 -3.46484,7.58593 -0.0222,0.047 -0.0441,0.0936 -0.0664,0.14063 -0.0534,0.11287 -0.10658,0.2251 -0.16016,0.33789 h 74.36528 0.0176 l -8e-5,-533.33237 h -0.002 -0.0156 c -0.14533,1e-5 -0.29028,-2.9e-4 -0.43555,0 z"
     style="display:inline;vector-effect:non-scaling-stroke;fill:#1e445c;fill-opacity:1;stroke:#00349c;stroke-width:2;-inkscape-stroke:hairline"
     id="path250"
     sodipodi:nodetypes="ccccsssccccccssssscsssscccccscc" /><path
     d="m 538.84748,135.21715 v 88.88703 l 175.33213,0.002 h 0.0176 0.35156 c 4.90889,0.0133 9.75679,0.29199 14.52734,0.82226 10.24355,1.13864 20.13626,3.4385 29.54492,6.76368 h 0.002 v -0.002 h 0.002 v 0.002 c 1.55935,0.55115 3.10461,1.13137 4.63672,1.73828 0.0102,0.004 0.0212,0.008 0.0312,0.0117 4.12103,1.63364 8.11207,3.51235 12.01953,5.5332 1.24725,0.64496 2.43821,1.37189 3.66211,2.05469 2.62964,1.46715 5.21818,2.9888 7.73437,4.625 1.35121,0.87851 2.66759,1.7932 3.98438,2.71875 2.33512,1.64138 4.60641,3.35458 6.82812,5.13867 1.23473,0.99144 2.46987,1.97193 3.66797,3.00586 0.61286,0.52885 1.27586,0.99932 1.87891,1.53906 0.94749,0.84803 1.75494,1.83846 2.67773,2.71289 2.39968,2.2738 4.72958,4.60368 6.95508,7.04883 1.3504,1.48353 2.6543,2.99356 3.9375,4.53711 2.0901,2.51398 4.065,5.11031 5.96875,7.77539 1.13918,1.59464 2.28589,3.17054 3.35547,4.81641 1.93181,2.97239 3.68392,6.05588 5.37891,9.18554 0.79365,1.46535 1.66069,2.87722 2.40039,4.375 2.31679,4.69093 4.42239,9.50355 6.18359,14.48633 0.26432,0.74782 0.52216,1.49808 0.77344,2.25195 0.20485,0.61457 0.40546,1.23306 0.60156,1.85157 2.59017,8.16933 4.41613,16.68064 5.39063,25.44726 0.38073,3.42537 0.47561,6.93103 0.59179,10.42969 0.0827,0.82869 0.10609,1.67416 0.14258,2.51562 0.008,0.52524 0.0864,1.0319 0.0879,1.5586 v 266.85556 c 0.001,-0.30291 0.0153,-0.60367 0.0332,-0.90235 -0.0194,0.36555 -0.0332,0.73355 -0.0332,1.10352 v 0.002 c 0,0.37227 0.0125,0.74061 0.0332,1.10742 -0.0193,-0.30074 -0.0319,-0.60263 -0.0332,-0.9082 v 0.18945 c -6e-5,0.0294 0,0.0586 0,0.0879 v 0.008 0.002 l -0.002,0.002 v 0.002 0.002 c 0,4.72444 -0.27894,9.3918 -0.77539,13.98828 -0.0144,0.13768 -0.0296,0.27469 -0.0449,0.41211 -1.04816,9.4299 -3.08006,18.56544 -5.99024,27.29687 -0.25126,0.75385 -0.50914,1.50417 -0.77344,2.25196 h -0.002 c -0.55062,1.55784 -1.12811,3.1041 -1.73437,4.63476 -7.6925,19.42103 -19.81671,36.60514 -35.12305,50.30469 v 0.002 c -3.06654,2.74459 -6.2777,5.32848 -9.58984,7.78321 -1.06463,0.78907 -2.19654,1.48441 -3.28516,2.24218 -2.29387,1.59663 -4.59439,3.17781 -6.99023,4.63086 -1.37501,0.83405 -2.80591,1.57424 -4.2129,2.35938 -2.21733,1.23726 -4.43945,2.4602 -6.73242,3.57226 -1.54625,0.75001 -3.13008,1.42198 -4.70898,2.11329 -1.43682,0.6291 -2.82633,1.34443 -4.28906,1.92382 -1.5315,0.60664 -3.07606,1.18736 -4.63477,1.73829 h -0.002 c -13.70104,4.84254 -28.43001,7.50822 -43.77149,7.58398 -0.006,3e-5 -0.0114,-3e-5 -0.0176,0 -0.0276,1.3e-4 -0.0543,0.002 -0.082,0.002 -0.0459,5.7e-4 -0.0928,0 -0.13867,0 0.0735,-2.3e-4 0.14727,-0.002 0.2207,-0.002 h -0.67187 -0.63672 c 0.0734,3.5e-4 0.14722,0.002 0.2207,0.002 H 508.90793 c -1.78572,3.75905 -3.64401,7.47617 -5.57422,11.15039 -2.82597,5.37937 -5.80567,10.6657 -8.93164,15.85352 -12.56331,20.84985 -27.50464,40.10667 -44.44531,57.39453 v 0.002 c -0.3834,0.39125 -0.7669,0.7807 -1.15234,1.16993 -0.12622,0.12744 -0.25443,0.25557 -0.38086,0.38281 -0.97841,0.98462 -1.96366,1.96206 -2.95508,2.93359 h 4.48828 4.48828 258.95126 0.0117 0.77149 0.77148 c 14.9514,-0.0508 29.55427,-1.57767 43.67188,-4.44336 h 0.002 c 15.45763,-3.13774 30.3324,-7.87964 44.44336,-14.04492 15.8669,-6.93248 30.76835,-15.66438 44.44531,-25.9375 2.11487,-1.58854 4.20048,-3.21565 6.25586,-4.87695 7.15295,-5.78149 13.93935,-11.99679 20.32031,-18.60742 6.38074,-6.61082 12.35458,-13.61673 17.88282,-20.97657 h -0.0156 c 0,0 0.0156,0 0.0176,-0.002 19.4092,-25.84048 33.31668,-56.0498 39.98242,-88.88867 1.96684,-9.68972 3.30363,-19.60802 3.96485,-29.71094 0.3105,-4.7444 0.48046,-9.53051 0.48046,-14.35156 v -0.0469 c -3.2e-4,0.0152 -10e-4,0.0298 -0.002,0.0449 -0.006,0.18043 -0.0268,0.35787 -0.0371,0.53711 0.0133,-0.30497 0.0391,-0.60784 0.0391,-0.91601 10e-6,-0.0528 1.9e-4,-0.10548 0,-0.1582 -1.7e-4,-0.0519 -0.002,-0.10241 -0.002,-0.1543 -2.9e-4,-0.006 0,-0.0134 0,-0.0195 -3e-5,-0.004 3e-5,-0.008 0,-0.0117 -3e-5,-0.001 4e-5,-0.003 0,-0.004 -7e-5,-0.009 8e-5,-0.0182 0,-0.0273 -1.6e-4,-0.005 1.7e-4,-0.009 0,-0.0137 -2.6e-4,-0.0311 3.3e-4,-0.0627 0,-0.0937 5.2e-4,0.009 0.002,0.0186 0.002,0.0273 v -265.83005 -0.33008 -0.0527 -0.0527 c 0,-0.71289 -0.0745,-1.40696 -0.0859,-2.11719 -0.0316,-3.26678 -0.29962,-6.47348 -0.47071,-9.70508 -0.098,-1.85152 -0.1245,-3.72132 -0.26757,-5.56055 -0.6422,-8.25132 -1.5886,-16.42072 -3.10743,-24.39453 -0.16635,-0.87336 -0.33712,-1.74357 -0.51367,-2.61328 -1.22519,-6.03542 -2.69678,-11.98309 -4.40039,-17.83008 v -0.002 c -7.5656,-25.96577 -19.74212,-49.96798 -35.58398,-71.05859 -12.64499,-16.83443 -27.62451,-31.81408 -44.45899,-44.45899 -10.11922,-7.60074 -20.9109,-14.3592 -32.26562,-20.16797 -7.19881,-3.68269 -14.76577,-6.71166 -22.39258,-9.60547 -2.57369,-0.97641 -5.11212,-2.02178 -7.73047,-2.90429 -8.6317,-2.90907 -17.43051,-5.46368 -26.5,-7.30469 v 0.043 h -0.002 c -0.0121,-0.0124 -0.023,-0.0247 -0.0352,-0.0371 -0.005,-0.005 -0.0108,-0.0105 -0.0156,-0.0156 -7.17231,-1.45412 -14.47007,-2.56342 -21.875,-3.30859 -7.4049,-0.74489 -14.91659,-1.12695 -22.51758,-1.12695 h -0.0176 -0.48242 c -44.27735,-0.006 -130.5547,0.009 -174.83205,-0.001 z"
     style="display:inline;vector-effect:non-scaling-stroke;fill:#1e445c;fill-opacity:1;stroke:#00349c;stroke-width:2;-inkscape-stroke:hairline"
     id="path252"
     sodipodi:nodetypes="cccccscccccscsssssssssssssssssscccccsscccsccccsccscccccsssssssccsscccccccssccsscccccccccsssccccssscccsscsscsccccccscscssccssssccccsccscccc" /><path
     d="m 227.0467,135.21715 c -13.2247,0.0669 -25.99498,2.05941 -38.04297,5.71093 -1.92314,0.58287 -3.8276,1.20671 -5.71289,1.87305 -1.55884,0.55097 -3.1051,1.1316 -4.63672,1.73828 -6.07239,2.40532 -11.9247,5.24312 -17.52149,8.47656 -7.9888,4.61539 -15.45381,10.03622 -22.28515,16.1504 -15.30711,13.70014 -27.43055,30.88452 -35.12305,50.30664 -0.60628,1.53074 -1.1857,3.07488 -1.73633,4.63281 h 22.35352 14.08398 c 0.1399,-0.001 0.28167,-0.002 0.42188,-0.002 0.14105,-1e-5 0.28113,6.4e-4 0.42187,0.002 h 40.8711 3.15039 7.58593 22.35157 14.08593 c 0.13464,-0.001 0.26938,-0.002 0.4043,-0.002 0.005,-0.007 0.0122,-0.0144 0.0176,-0.0215 v 0.0215 c 0.14105,-1e-5 0.28113,6.4e-4 0.42187,0.002 h 36.4375 7.58399 4.49023 39.57227 0.36523 c 0.006,-0.008 0.0117,-0.0156 0.0176,-0.0234 v 0.0234 h 0.38477 36.47461 3.14062 4.44332 v 3.15039 1.33789 3.09766 l 1e-4,392.92983 v 0 c -0.0174,4.60412 -0.26733,9.1519 -0.74023,13.63477 -0.75641,7.17028 -2.08056,14.17152 -3.92774,20.95703 -0.47882,1.75892 -0.99279,3.50324 -1.54101,5.23242 -0.0886,0.27952 -0.17913,0.55918 -0.26954,0.83789 -0.35522,1.09511 -0.72482,2.18315 -1.10742,3.26563 -3.35809,9.50106 -7.76196,18.50869 -13.07422,26.88281 -3.28643,5.18067 -6.92055,10.11962 -10.86914,14.7832 -3.99427,4.71754 -8.3097,9.1525 -12.91406,13.27344 -3.86399,3.45831 -7.93194,6.69526 -12.18164,9.68945 -9.85483,6.94339 -20.69261,12.58609 -32.26367,16.67579 h -0.002 c -0.74744,0.26416 -1.4965,0.52228 -2.25,0.77343 -2.32293,0.77427 -4.67491,1.4849 -7.05273,2.13282 -11.06393,3.01474 -22.70043,4.64201 -34.71094,4.67968 h -0.42773 -0.42774 -0.125 c -0.30129,-7.3e-4 -0.59157,-0.0449 -0.89257,-0.0469 -3.79829,-0.0406 -7.55962,-0.23207 -11.27539,-0.58399 -11.01698,-1.0434 -21.65343,-3.39549 -31.72461,-6.95507 -1.55899,-0.55102 -3.10496,-1.13154 -4.63672,-1.73829 -6.07238,-2.40531 -11.9247,-5.24312 -17.52149,-8.47656 -7.98881,-4.61539 -15.45381,-10.03621 -22.28515,-16.15039 -15.30665,-13.69974 -27.43052,-30.88328 -35.12305,-50.30469 -0.60638,-1.53093 -1.18562,-3.07663 -1.73633,-4.63476 -3.549371,-10.04225 -5.903071,-20.64387 -6.951171,-31.62696 -0.37918,-3.97347 -0.61015,-7.98915 -0.63281,-12.05664 -5.4e-4,-0.16077 -0.002,-0.32156 -0.002,-0.48242 -7e-5,-0.0651 3e-5,-0.13017 0,-0.19531 v -0.0801 c 0,-0.028 -1e-5,-0.0579 0,-0.0859 3e-5,-0.0645 -7e-5,-0.1289 0,-0.19336 v -44.16796 -3.15039 -26.78907 -14.13086 c -3.4e-4,-0.12435 0,-0.24861 0,-0.37304 0,-0.12422 -3.3e-4,-0.24891 0,-0.37305 v -36.48633 c -10.53986,3.72531 -20.47109,8.73809 -29.60546,14.84961 -1.41757,0.94845 -2.81686,1.92512 -4.19532,2.92578 -1.15991,0.8841 -2.32542,1.75887 -3.49804,2.62696 -2.26771,1.7622 -4.47751,3.59601 -6.625004,5.49804 -0.17402,0.15413 -0.348277,0.30982 -0.521484,0.46485 -9.709204,8.68997 -18.135796,18.78149 -24.964844,29.95703 -0.570284,0.93325 -1.12994,1.87408 -1.677734,2.82226 -4.049057,7.00855 -7.479452,14.41894 -10.214844,22.15821 -0.672532,1.9028 -1.303138,3.82624 -1.890625,5.76757 -3.645607,12.04681 -5.631151,24.81497 -5.693359,38.03711 -4.3e-4,0.21299 -0.002,0.4295 -0.002,0.64258 0,0.21195 0.0015,0.42292 0.002,0.63477 0.0023,0.49282 0.06072,0.97135 0.06836,1.46289 0.03225,4.8422 0.787974,9.49008 1.039062,14.27734 0.208805,3.98107 0.506178,7.93301 0.863282,11.87305 0.691927,5.44186 1.394462,10.88172 2.472656,16.19336 6.665893,32.83896 20.573001,63.05015 39.982422,88.89062 h 0.01563 0.01758 c -0.0055,0.007 -0.01212,0.0142 -0.01758,0.0215 12.641832,16.82622 27.617522,31.7996 44.445312,44.43945 7.086681,5.32301 14.501001,10.23192 22.208991,14.69141 7.16798,4.14706 14.59091,7.90567 22.23633,11.24609 14.11121,6.16545 28.98542,10.90713 44.44336,14.04492 5.29791,1.07541 10.72875,1.76198 16.15625,2.45313 9.14635,0.83025 18.2126,1.95726 27.57031,1.97851 0.0916,2.9e-4 0.17986,0.0135 0.27148,0.0137 h 0.44727 0.44726 c 0.0916,-1.8e-4 0.17988,-0.0134 0.27149,-0.0137 9.35598,-0.0212 18.41974,-1.14661 27.56445,-1.97656 5.42784,-0.69109 10.85995,-1.37969 16.1582,-2.45508 h 0.002 c 12.66687,-2.5712 24.942,-6.21948 36.72656,-10.8457 2.59666,-1.01936 5.17085,-2.086 7.71875,-3.19922 11.32255,-4.94699 22.15343,-10.81037 32.39844,-17.49609 4.11177,-2.68328 8.12787,-5.49922 12.04492,-8.44141 2.11515,-1.58874 4.20216,-3.21543 6.25781,-4.87695 10.5994,-8.56715 20.39445,-18.08773 29.25586,-28.4336 3.09272,-3.6108 6.07211,-7.32292 8.93164,-11.1289 v -0.0215 h 0.0176 c 2.62722,-3.49771 5.15293,-7.07698 7.57422,-10.73047 0.80888,-1.22052 1.60537,-2.44828 2.39062,-3.68554 0.45783,-0.72137 0.91162,-1.44686 1.36133,-2.17383 13.52778,-21.86797 23.36981,-46.25755 28.65625,-72.30078 0.17655,-0.86972 0.34732,-1.7399 0.51367,-2.61328 0.0693,-0.36384 0.13756,-0.72929 0.20508,-1.09375 0.0906,-0.48892 0.18021,-0.97677 0.26758,-1.4668 0.0782,-0.43841 0.15488,-0.87711 0.23047,-1.31641 0.12287,-0.71402 0.27219,-1.42583 0.35742,-2.14648 1.08805,-9.20002 2.02455,-16.56197 2.8418,-34.70117 5.6e-4,-0.1611 0.027,-0.31541 0.0273,-0.47657 2e-4,-0.043 -1.6e-4,-0.0859 0,-0.1289 -3.6e-4,-0.16584 0,-0.33213 0,-0.49805 v -0.002 c 0,-0.16663 -3.6e-4,-0.33346 0,-0.5 -1.5e-4,-0.0413 1.9e-4,-0.0817 0,-0.12305 -0.001,-0.58604 -0.11866,-1.14128 -0.12305,-1.72656 0.009,0.53923 0.12004,1.05102 0.12305,1.5918 l 10e-5,-483.68771 v -1.29297 -3.15039 h -7.58398 -22.35352 -13.73437 -0.75391 -0.0176 -0.77148 -13.73451 -29.93945 -44.07227 -0.22851 -0.125 -0.0176 -0.14062 c -0.32188,0.001 -0.6329,0.043 -0.95313,0.0508 0.24152,-0.0172 0.48305,-0.0342 0.72461,-0.0508 h -39.58789 -4.48828 -43.75391 -0.68945 z"
     style="display:inline;vector-effect:non-scaling-stroke;fill:#1e445c;fill-opacity:1;stroke:#00349c;stroke-width:2;-inkscape-stroke:hairline"
     id="path253"
     sodipodi:nodetypes="csssssscccsccccccccccccccccccccccccccsssssssssccsscccccsssssssscsssscccccsccsccscsssscsccscsccccsssscscccccccsssssscccssssssssscscssccccccccccccccccccccccccccc"
     inkscape:label="J" /></g></svg>
